<svg width="780" height="400" viewBox="0 0 780 400" fill="none" xmlns="http://www.w3.org/2000/svg">
<g id="How to download files with curl blog image" clip-path="url(#clip0_3584_769)">
<rect width="780" height="400" fill="#091E42"/>
<rect width="780" height="400" fill="url(#paint0_radial_3584_769)"/>
<rect width="780" height="400" fill="url(#paint1_radial_3584_769)"/>
<rect width="780" height="400" fill="url(#paint2_radial_3584_769)"/>
<g id="Group 1143981">
<g id="Group 1143370" filter="url(#filter0_d_3584_769)">
<g id="Group 1143245">
<g id="Group 112948">
<g id="Group 112867">
<g id="Group 112845">
<g id="Group 112839">
<rect id="Rectangle 7900" x="216.059" y="88.7156" width="305.717" height="200.494" rx="9.33293" fill="#2D3948"/>
<rect id="Rectangle 7898" x="180.393" y="73.0255" width="349.876" height="216.185" rx="5.32639" fill="url(#paint3_linear_3584_769)"/>
</g>
</g>
</g>
</g>
</g>
<path id="Rectangle 8724" d="M180 78.3294C180 73.1769 184.177 69 189.329 69H206.787V285.111H189.329C184.177 285.111 180 280.934 180 275.782V78.3294Z" fill="#062E69"/>
<path id="Rectangle 8725" d="M206.789 69H284.64V285.111H206.789V69Z" fill="#0F3E82"/>
<g id="Group 1143376">
<g id="Group 1143369">
<rect id="Rectangle 8731" x="220.848" y="102.514" width="39.782" height="3.8668" rx="1.9334" fill="white" fill-opacity="0.2"/>
</g>
<path id="Polygon 5" d="M214.373 105.805C214.237 105.999 213.986 105.999 213.85 105.805L212.308 103.606C212.123 103.343 212.281 102.943 212.569 102.943L215.654 102.943C215.943 102.943 216.1 103.343 215.916 103.606L214.373 105.805Z" fill="white" fill-opacity="0.2"/>
</g>
<path id="Rectangle 8726" d="M284.639 69H520.582C525.735 69 529.912 73.1769 529.912 78.3294V88.7636H284.639V69Z" fill="#062E69"/>
<path id="Exclude" fill-rule="evenodd" clip-rule="evenodd" d="M198.297 268.724H199.296C199.504 268.724 199.672 268.896 199.672 269.11V271.039C199.672 271.252 199.504 271.425 199.296 271.425H198.297C198.181 271.869 198.01 272.289 197.791 272.678L198.498 273.403C198.645 273.554 198.645 273.798 198.498 273.949L197.169 275.313C197.022 275.464 196.784 275.464 196.637 275.313L195.93 274.588C195.552 274.812 195.142 274.988 194.71 275.107V276.133C194.71 276.346 194.542 276.519 194.334 276.519H192.454C192.246 276.519 192.078 276.346 192.078 276.133V275.107C191.646 274.988 191.236 274.812 190.858 274.588L190.151 275.313C190.004 275.464 189.766 275.464 189.619 275.313L188.29 273.949C188.143 273.798 188.143 273.554 188.29 273.403L188.997 272.678C188.778 272.289 188.607 271.869 188.491 271.425H187.492C187.284 271.425 187.116 271.252 187.116 271.039V269.11C187.116 268.896 187.284 268.724 187.492 268.724H188.491C188.607 268.28 188.778 267.86 188.997 267.471L188.29 266.745C188.143 266.595 188.143 266.35 188.29 266.2L189.619 264.835C189.766 264.684 190.004 264.684 190.151 264.835L190.858 265.561C191.236 265.336 191.646 265.161 192.078 265.042V264.016C192.078 263.803 192.246 263.63 192.454 263.63H194.334C194.542 263.63 194.71 263.803 194.71 264.016V265.042C195.142 265.161 195.552 265.336 195.93 265.561L196.637 264.835C196.784 264.684 197.022 264.684 197.169 264.835L198.498 266.199C198.645 266.35 198.645 266.595 198.498 266.745L197.791 267.471C198.01 267.86 198.181 268.28 198.297 268.724ZM193.395 272.649C194.782 272.649 195.906 271.495 195.906 270.071C195.906 268.648 194.782 267.493 193.395 267.493C192.008 267.493 190.883 268.648 190.883 270.071C190.883 271.495 192.008 272.649 193.395 272.649Z" fill="white" fill-opacity="0.5"/>
<rect id="Rectangle 7937" x="212.229" y="76.3041" width="48.1337" height="3.8668" rx="1.9334" fill="white" fill-opacity="0.2"/>
<g id="Group 1143365">
<path id="Polygon 5_2" d="M215.016 223.189C215.205 223.329 215.205 223.587 215.016 223.726L212.874 225.31C212.618 225.499 212.228 225.337 212.228 225.041L212.228 221.874C212.228 221.578 212.618 221.416 212.874 221.606L215.016 223.189Z" fill="white" fill-opacity="0.2"/>
<rect id="Rectangle 8732" x="218.507" y="221.524" width="39.782" height="3.8668" rx="1.9334" fill="white" fill-opacity="0.2"/>
</g>
<g id="Group 1143373">
<path id="Polygon 5_3" d="M215.016 235.65C215.205 235.789 215.205 236.047 215.016 236.187L212.874 237.77C212.618 237.96 212.228 237.798 212.228 237.501L212.228 234.335C212.228 234.039 212.618 233.877 212.874 234.066L215.016 235.65Z" fill="white" fill-opacity="0.2"/>
<rect id="Rectangle 8732_2" x="218.507" y="233.985" width="39.782" height="3.8668" rx="1.9334" fill="white" fill-opacity="0.2"/>
</g>
<g id="Group 1143374">
<path id="Polygon 5_4" d="M215.016 248.109C215.205 248.249 215.205 248.506 215.016 248.646L212.874 250.229C212.618 250.419 212.228 250.257 212.228 249.961L212.228 246.794C212.228 246.498 212.618 246.336 212.874 246.525L215.016 248.109Z" fill="white" fill-opacity="0.2"/>
<rect id="Rectangle 8732_3" x="218.507" y="246.444" width="39.782" height="3.8668" rx="1.9334" fill="white" fill-opacity="0.2"/>
</g>
<g id="Group 1143375">
<path id="Polygon 5_5" d="M215.016 260.569C215.205 260.708 215.205 260.966 215.016 261.105L212.874 262.689C212.618 262.878 212.228 262.717 212.228 262.42L212.228 259.254C212.228 258.958 212.618 258.796 212.874 258.985L215.016 260.569Z" fill="white" fill-opacity="0.2"/>
<rect id="Rectangle 8732_4" x="218.507" y="258.904" width="39.782" height="3.8668" rx="1.9334" fill="white" fill-opacity="0.2"/>
</g>
<rect id="Rectangle 8727" x="212.229" y="87.0458" width="35.9956" height="3.8668" rx="1.9334" fill="white" fill-opacity="0.2"/>
<ellipse id="Ellipse 2566" cx="193.393" cy="82.7487" rx="6.27831" ry="6.44466" fill="white" fill-opacity="0.2"/>
<ellipse id="Ellipse 2567" cx="193.393" cy="105.09" rx="6.27831" ry="6.44466" fill="white" fill-opacity="0.2"/>
<g id="Group 1143357">
<rect id="Rectangle 8732_5" x="230.822" y="116.244" width="44.1062" height="3.00751" rx="1.50375" fill="white" fill-opacity="0.2"/>
<ellipse id="Ellipse 2571" cx="224.335" cy="118.02" rx="3.02689" ry="3.1071" fill="#7879F1"/>
</g>
<g id="Group 1143361">
<rect id="Rectangle 8732_6" x="230.644" y="167.819" width="39.5844" height="3.00751" rx="1.50375" fill="white" fill-opacity="0.2"/>
<ellipse id="Ellipse 2571_2" cx="224.335" cy="169.508" rx="3.02689" ry="3.1071" fill="#15C1E6"/>
</g>
<g id="Group 1143358">
<rect id="Rectangle 8733" x="230.822" y="129.56" width="33.7282" height="3.00751" rx="1.50375" fill="white" fill-opacity="0.2"/>
<ellipse id="Ellipse 2572" cx="224.335" cy="130.892" rx="3.02689" ry="3.1071" fill="#15C1E6"/>
</g>
<g id="Group 1143362">
<rect id="Rectangle 8733_2" x="230.822" y="181.049" width="34.5931" height="3.1071" rx="1.55355" fill="white" fill-opacity="0.2"/>
<ellipse id="Ellipse 2572_2" cx="224.335" cy="182.38" rx="3.02689" ry="3.1071" fill="#3D7FFC"/>
</g>
<g id="Group 1143359">
<rect id="Rectangle 8734" x="230.822" y="142.432" width="38.0524" height="3.00751" rx="1.50375" fill="white" fill-opacity="0.2"/>
<ellipse id="Ellipse 2573" cx="224.335" cy="143.764" rx="3.02689" ry="3.1071" fill="#3D7FFC"/>
</g>
<g id="Group 1143363">
<rect id="Rectangle 8734_2" x="230.822" y="193.922" width="42.8089" height="3.1071" rx="1.55355" fill="white" fill-opacity="0.2"/>
<ellipse id="Ellipse 2573_2" cx="224.335" cy="195.253" rx="3.02689" ry="3.1071" fill="#3D7FFC"/>
</g>
<g id="Group 1143360">
<rect id="Rectangle 8735" x="230.822" y="155.305" width="28.9717" height="3.00751" rx="1.50375" fill="white" fill-opacity="0.2"/>
<ellipse id="Ellipse 2574" cx="224.335" cy="156.637" rx="3.02689" ry="3.1071" fill="#7879F1"/>
</g>
<g id="Group 1143364">
<rect id="Rectangle 8735_2" x="230.822" y="206.793" width="28.9717" height="3.1071" rx="1.55355" fill="white" fill-opacity="0.2"/>
<ellipse id="Ellipse 2574_2" cx="224.335" cy="208.126" rx="3.02689" ry="3.1071" fill="#7879F1"/>
</g>
<ellipse id="Ellipse 2568" cx="193.393" cy="127.432" rx="6.27831" ry="6.44466" fill="white" fill-opacity="0.2"/>
<ellipse id="Ellipse 2569" cx="193.393" cy="149.773" rx="6.27831" ry="6.44466" fill="white" fill-opacity="0.2"/>
<g id="Group 112966">
<rect id="Rectangle 7902" x="297.196" y="103.372" width="9.24451" height="5.07063" rx="2.53531" fill="#697583"/>
<rect id="Rectangle 7907" x="336.103" y="103.372" width="35.4798" height="5.07063" rx="2.53531" fill="#15C1E6"/>
<rect id="Rectangle 7912" x="375.22" y="103.372" width="45.4869" height="5.07063" rx="2.53531" fill="#7879F1"/>
<rect id="Rectangle 7913" x="424.343" y="103.372" width="10.9169" height="5.07063" rx="2.53531" fill="#D2DCE4"/>
<rect id="Rectangle 7948" x="441.14" y="103.372" width="55.467" height="5.07063" rx="2.53531" fill="#15C1E6"/>
</g>
<g id="Group 112971">
<rect id="Rectangle 7902_2" x="297.196" y="203.909" width="9.24451" height="5.04528" rx="2.52264" fill="#697583"/>
<rect id="Rectangle 7907_2" x="329.14" y="203.926" width="35.4798" height="5.04528" rx="2.52264" fill="#15C1E6"/>
<rect id="Rectangle 7912_2" x="370.782" y="203.926" width="45.4869" height="5.04528" rx="2.52264" fill="#D2DCE4"/>
<rect id="Rectangle 7913_2" x="422.425" y="203.926" width="18.489" height="5.04528" rx="2.52264" fill="#7879F1"/>
<rect id="Rectangle 7928" x="447.088" y="203.926" width="58.5485" height="5.04528" rx="2.52264" fill="#15C1E6"/>
</g>
<g id="Group 112972">
<rect id="Rectangle 7938" x="417.74" y="223.672" width="45.4869" height="4.98379" rx="2.4919" fill="#D2DCE4"/>
<rect id="Rectangle 7939" x="469.101" y="223.672" width="10.9169" height="4.98379" rx="2.4919" fill="#7879F1"/>
<rect id="Rectangle 7903" x="297.196" y="223.672" width="9.24451" height="4.98379" rx="2.4919" fill="#697583"/>
<rect id="Rectangle 7908" x="329.14" y="223.672" width="25.4727" height="4.98379" rx="2.4919" fill="#15C1E6"/>
<rect id="Rectangle 7913_3" x="361.251" y="223.672" width="50.0356" height="4.98379" rx="2.4919" fill="#7879F1"/>
</g>
<g id="Group 112968">
<rect id="Rectangle 7947" x="449.666" y="143.328" width="50.0356" height="5.24299" rx="2.62149" fill="#D2DCE4"/>
<rect id="Rectangle 7904" x="297.196" y="143.328" width="9.24451" height="5.24299" rx="2.62149" fill="#697583"/>
<rect id="Rectangle 7909" x="347.977" y="143.328" width="40.9383" height="5.24299" rx="2.62149" fill="#7879F1"/>
<path id="Rectangle 7914" d="M395.228 145.95C395.228 144.502 396.401 143.328 397.849 143.328H440.822C442.27 143.328 443.444 144.502 443.444 145.95C443.444 147.398 442.27 148.571 440.822 148.571H397.849C396.401 148.571 395.228 147.398 395.228 145.95Z" fill="#15C1E6"/>
</g>
<g id="Group 1143372">
<rect id="Rectangle 7942" x="514.007" y="248.592" width="21.3463" height="5.15573" rx="2.57786" transform="rotate(-180 514.007 248.592)" fill="#7879F1"/>
<rect id="Rectangle 7943" x="486.576" y="248.534" width="35.4798" height="5.07205" rx="2.53603" transform="rotate(-180 486.576 248.534)" fill="#15C1E6"/>
<rect id="Rectangle 7904_2" x="297.196" y="243.436" width="9.24451" height="5.07205" rx="2.53603" fill="#697583"/>
<rect id="Rectangle 7909_2" x="349.616" y="243.46" width="40.9383" height="5.07205" rx="2.53603" fill="#7879F1"/>
<path id="Rectangle 7914_2" d="M396.715 245.996C396.715 244.596 397.851 243.46 399.251 243.46H442.395C443.796 243.46 444.931 244.596 444.931 245.996C444.931 247.397 443.796 248.533 442.395 248.533H399.251C397.851 248.533 396.715 247.397 396.715 245.996Z" fill="#D2DCE4"/>
</g>
<g id="Group 1143371">
<rect id="Rectangle 7944" x="483.175" y="268.273" width="10.9169" height="5.07205" rx="2.53603" transform="rotate(-180 483.175 268.273)" fill="#7879F1"/>
<rect id="Rectangle 7945" x="466.098" y="268.273" width="35.4798" height="5.07205" rx="2.53603" transform="rotate(-180 466.098 268.273)" fill="#15C1E6"/>
<rect id="Rectangle 7946" x="297.196" y="263.208" width="9.24451" height="5.07205" rx="2.53603" fill="#697583"/>
<rect id="Rectangle 7947_2" x="329.14" y="263.2" width="40.9383" height="5.07205" rx="2.53603" fill="#7879F1"/>
<path id="Rectangle 7948_2" d="M376.24 265.736C376.24 264.335 377.375 263.2 378.776 263.2H421.92C423.32 263.2 424.456 264.335 424.456 265.736C424.456 267.136 423.32 268.272 421.92 268.272H378.776C377.375 268.272 376.24 267.136 376.24 265.736Z" fill="#D2DCE4"/>
</g>
<g id="Group 1143355">
<rect id="Rectangle 7905" x="297.196" y="163.523" width="9.24451" height="5.24299" rx="2.62149" fill="#697583"/>
<rect id="Rectangle 7910" x="357.395" y="164.107" width="31.6371" height="4.63933" rx="2.31967" fill="#15C1E6"/>
<rect id="Rectangle 7915" x="394.876" y="163.532" width="22.7435" height="5.24299" rx="2.62149" fill="#7879F1"/>
<rect id="Rectangle 7933" x="423.638" y="163.532" width="60.0428" height="5.24299" rx="2.62149" fill="#15C1E6"/>
</g>
<g id="Group 1143356">
<rect id="Rectangle 7905_2" x="297.196" y="123.135" width="9.24451" height="5.24299" rx="2.62149" fill="#697583"/>
<rect id="Rectangle 7910_2" x="328.73" y="123.135" width="51.1913" height="5.04458" rx="2.52229" fill="#15C1E6"/>
<rect id="Rectangle 7915_2" x="385.245" y="123.135" width="22.7435" height="5.24299" rx="2.62149" fill="#7879F1"/>
<rect id="Rectangle 7933_2" x="413.503" y="123.135" width="52.4199" height="5.04458" rx="2.52229" fill="#15C1E6"/>
</g>
<g id="Group 112970">
<rect id="Rectangle 7931" x="440.861" y="183.715" width="25.4727" height="5.24299" rx="2.62149" fill="#15C1E6"/>
<rect id="Rectangle 7906" x="297.196" y="183.715" width="9.24451" height="5.24299" rx="2.62149" fill="#697583"/>
<rect id="Rectangle 7911" x="340.197" y="183.715" width="52.7649" height="5.24299" rx="2.62149" fill="#7879F1"/>
<path id="Rectangle 7916" d="M398.747 186.337C398.747 184.889 399.92 183.715 401.368 183.715H432.515C433.962 183.715 435.136 184.889 435.136 186.337C435.136 187.785 433.962 188.958 432.515 188.958H401.368C399.92 188.958 398.747 187.785 398.747 186.337Z" fill="#D2DCE4"/>
</g>
<path id="Rectangle 8729" d="M284.639 69H359.56V88.7636H284.639V69Z" fill="#2F5091"/>
<ellipse id="Ellipse 2570" cx="292.761" cy="79.0556" rx="3.09915" ry="3.18126" fill="white" fill-opacity="0.2"/>
<rect id="Rectangle 7949" x="300.882" y="77.1627" width="49.8079" height="3.8668" rx="1.9334" fill="white" fill-opacity="0.2"/>
<rect id="Rectangle 8730" x="284.639" y="87.9045" width="74.9212" height="0.859288" fill="#3D7FFC"/>
</g>
<g id="Group 1143763">
<g id="Group 1143496">
<g id="Group 1143766">
<g id="Rectangle 4" filter="url(#filter1_bd_3584_769)">
<rect x="240.232" y="243.126" width="75.5642" height="75.5642" rx="10.7374" fill="url(#paint4_linear_3584_769)" shape-rendering="crispEdges"/>
<rect x="240.758" y="243.652" width="74.5131" height="74.5131" rx="10.2119" stroke="url(#paint5_linear_3584_769)" stroke-width="1.0511" shape-rendering="crispEdges"/>
</g>
<g id="download_Install " clip-path="url(#clip1_3584_769)">
<g id="Group 1142900">
<g id="_14" clip-path="url(#clip2_3584_769)">
<path id="Vector" d="M288.535 278.485C287.782 277.733 286.563 277.733 285.811 278.485L279.602 284.694V263.095C279.602 262.03 278.738 261.167 277.673 261.167C276.608 261.167 275.749 262.03 275.749 263.095V284.698L269.54 278.489C268.787 277.737 267.569 277.737 266.816 278.489C266.063 279.242 266.063 280.461 266.816 281.213L276.313 290.711C276.972 291.369 277.99 291.451 278.734 290.959C278.841 290.89 278.943 290.805 279.037 290.711L288.535 281.213C289.287 280.461 289.287 279.242 288.535 278.489V278.485Z" fill="white"/>
<path id="Vector_2" d="M301.842 290.053C301.812 288.924 300.889 288.013 299.751 288.013C298.614 288.013 297.69 288.919 297.66 290.053V290.1C297.66 290.1 297.66 290.104 297.66 290.108V294.526C297.66 296.527 296.04 298.148 294.038 298.148H261.308C259.307 298.148 257.686 296.527 257.686 294.526V290.053C257.656 288.924 256.733 288.013 255.595 288.013C254.458 288.013 253.534 288.919 253.5 290.053V295.12C253.5 298.917 256.741 302 260.744 302H294.603C298.605 302 301.847 298.922 301.847 295.12V290.053H301.842Z" fill="white"/>
</g>
</g>
</g>
</g>
</g>
</g>
<g id="Group 1143951">
<g id="s_table_excel_text">
<g id="Group 10241_3_3">
<g id="Group 9204_3_3">
<g id="Group 9200_5_3">
<g id="Group 9303_3_3">
<g id="Group 9283_3_3">
<g id="Group 9200_6_3">
<g id="Group 9039_3_3">
<g id="Group 8804_3_3">
<g id="Rectangle 5981_3_3" filter="url(#filter2_d_3584_769)">
<g id="Vector_35" filter="url(#filter3_bd_3584_769)">
<path d="M379.314 190.766C379.314 188.076 381.871 185.896 385.024 185.896H620.901C624.056 185.896 626.61 188.076 626.61 190.766V328.961C626.61 331.649 624.056 333.83 620.901 333.83H385.024C381.871 333.83 379.314 331.649 379.314 328.961V190.766Z" fill="url(#paint6_linear_3584_769)"/>
<path d="M379.503 190.766C379.503 188.208 381.946 186.085 385.024 186.085H620.901C623.98 186.085 626.421 188.208 626.421 190.766V328.961C626.421 331.518 623.981 333.641 620.901 333.641H385.024C381.946 333.641 379.503 331.518 379.503 328.961V190.766Z" stroke="url(#paint7_linear_3584_769)" stroke-opacity="0.2" stroke-width="0.378083"/>
</g>
</g>
<g id="Rectangle 5983_3_3" filter="url(#filter4_bd_3584_769)">
<path d="M379.314 193.459H626.61V222.278H379.314V193.459Z" fill="url(#paint8_linear_3584_769)"/>
<path d="M379.503 193.648H626.421V222.089H379.503V193.648Z" stroke="url(#paint9_linear_3584_769)" stroke-opacity="0.2" stroke-width="0.378083"/>
</g>
<g id="Rectangle 5988_4_3" filter="url(#filter5_bd_3584_769)">
<path d="M379.314 252.493H626.61V294.368H379.314V252.493Z" fill="url(#paint10_linear_3584_769)"/>
<path d="M379.503 252.682H626.421V294.179H379.503V252.682Z" stroke="url(#paint11_linear_3584_769)" stroke-opacity="0.2" stroke-width="0.378083"/>
</g>
</g>
</g>
</g>
</g>
<g id="Group 8195_3_3">
<path id="Rectangle 5733_3_3" d="M387.887 201.985C387.887 200.828 388.888 199.888 390.123 199.888H402.795C404.03 199.888 405.031 200.828 405.031 201.985V213.864C405.031 215.022 404.03 215.961 402.795 215.961H390.123C388.888 215.961 387.887 215.022 387.887 213.864V201.985Z" fill="white" fill-opacity="0.2"/>
<path id="X_3_3" d="M396.473 208.904L398.623 212.747H400.745L397.609 207.772L400.54 203.103H398.445L396.459 206.584L394.473 203.103H392.378L395.309 207.757L392.173 212.747H394.282L396.473 208.904Z" fill="white"/>
</g>
<g id="Group 8765_3_3">
<path id="star 12_7_3" d="M513.037 232.749H510.573V232.743C510.436 232.741 510.305 232.698 510.193 232.624C510.083 232.548 509.999 232.443 509.956 232.32C509.947 232.303 509.941 232.282 509.936 232.265L509.213 230.08L509.195 230.025C509.164 229.941 509.105 229.871 509.029 229.82C508.952 229.772 508.86 229.746 508.767 229.751C508.673 229.755 508.585 229.787 508.511 229.842C508.439 229.896 508.387 229.97 508.364 230.055L507.632 232.255V232.261C507.627 232.282 507.619 232.307 507.61 232.329C507.563 232.449 507.481 232.555 507.369 232.629C507.259 232.703 507.127 232.743 506.992 232.743V232.749H504.526C504.418 232.766 504.321 232.819 504.252 232.897C504.182 232.977 504.144 233.077 504.146 233.18C504.146 233.246 504.16 233.311 504.191 233.372C504.222 233.432 504.265 233.484 504.321 233.527L504.34 233.541L506.256 234.913C506.346 234.976 506.42 235.056 506.47 235.151C506.522 235.247 506.547 235.35 506.547 235.456C506.547 235.504 506.542 235.553 506.529 235.599C506.52 235.64 506.51 235.673 506.493 235.709L505.768 237.905V237.913L505.763 237.93C505.75 237.97 505.745 238.012 505.745 238.055C505.743 238.112 505.752 238.165 505.774 238.217C505.795 238.27 505.828 238.319 505.869 238.359C505.911 238.399 505.959 238.433 506.013 238.454C506.069 238.477 506.127 238.49 506.186 238.49C506.263 238.49 506.339 238.473 506.405 238.435L506.483 238.38L508.384 237.021L508.425 236.992C508.531 236.922 508.655 236.886 508.785 236.884C508.913 236.882 509.038 236.918 509.145 236.986C509.168 236.998 509.19 237.015 509.211 237.032L511.102 238.384L511.154 238.425C511.224 238.465 511.305 238.488 511.386 238.486C511.445 238.486 511.504 238.473 511.558 238.45C511.612 238.427 511.663 238.395 511.702 238.355C511.744 238.313 511.776 238.266 511.798 238.213C511.819 238.16 511.828 238.105 511.826 238.048C511.826 238.006 511.821 237.962 511.807 237.919C511.807 237.913 511.803 237.905 511.801 237.898L511.071 235.692C511.06 235.665 511.049 235.635 511.042 235.606C511.012 235.483 511.017 235.359 511.058 235.24C511.1 235.122 511.175 235.018 511.274 234.938C511.29 234.925 511.308 234.913 511.325 234.902L513.219 233.546L513.276 233.505C513.325 233.465 513.364 233.413 513.391 233.355C513.418 233.298 513.431 233.237 513.431 233.174C513.431 233.07 513.391 232.971 513.319 232.893C513.247 232.812 513.147 232.762 513.037 232.749Z" fill="#B8C4D0" fill-opacity="0.5"/>
<path id="star_12_19_3" d="M525.409 232.749H522.947V232.743C522.81 232.741 522.677 232.698 522.566 232.624C522.456 232.548 522.373 232.443 522.328 232.32C522.321 232.303 522.314 232.282 522.309 232.265L521.585 230.08L521.567 230.025C521.537 229.941 521.478 229.871 521.4 229.82C521.325 229.772 521.233 229.746 521.139 229.751C521.046 229.755 520.958 229.787 520.884 229.842C520.812 229.896 520.76 229.97 520.737 230.055L520.004 232.255V232.261C519.999 232.282 519.992 232.307 519.983 232.329C519.936 232.449 519.853 232.555 519.742 232.629C519.632 232.703 519.499 232.743 519.364 232.743V232.749H516.898C516.79 232.766 516.693 232.819 516.623 232.897C516.555 232.977 516.517 233.077 516.519 233.18C516.519 233.246 516.533 233.311 516.564 233.372C516.594 233.432 516.637 233.484 516.693 233.527L516.713 233.541L518.627 234.913C518.74 234.991 518.826 235.097 518.875 235.221C518.923 235.342 518.933 235.477 518.902 235.604C518.893 235.64 518.882 235.678 518.866 235.711L518.141 237.909V237.915L518.136 237.932C518.123 237.972 518.118 238.015 518.118 238.059C518.116 238.112 518.125 238.169 518.146 238.222C518.168 238.274 518.2 238.321 518.242 238.361C518.281 238.403 518.332 238.437 518.386 238.458C518.44 238.479 518.499 238.492 518.558 238.494C518.636 238.494 518.711 238.475 518.778 238.437L518.855 238.384L520.756 237.026L520.798 236.994C520.904 236.926 521.028 236.888 521.156 236.888C521.285 236.886 521.411 236.92 521.517 236.988C521.54 237.002 521.562 237.017 521.584 237.034L523.474 238.389L523.526 238.427C523.596 238.469 523.677 238.488 523.758 238.488C523.818 238.488 523.877 238.475 523.931 238.452C523.985 238.431 524.033 238.397 524.075 238.357C524.116 238.317 524.149 238.268 524.17 238.215C524.192 238.162 524.201 238.108 524.199 238.053C524.199 238.008 524.194 237.964 524.179 237.922C524.179 237.915 524.174 237.909 524.172 237.903L523.443 235.697C523.431 235.667 523.422 235.64 523.415 235.608C523.4 235.557 523.395 235.504 523.395 235.452C523.393 235.352 523.416 235.257 523.46 235.17C523.503 235.08 523.566 235.001 523.645 234.94C523.661 234.928 523.677 234.917 523.693 234.904L525.587 233.55L525.645 233.508C525.695 233.465 525.733 233.415 525.76 233.358C525.787 233.301 525.8 233.239 525.8 233.178C525.801 233.072 525.762 232.971 525.69 232.893C525.618 232.815 525.519 232.762 525.409 232.749Z" fill="#B8C4D0" fill-opacity="0.5"/>
<path id="star_12_20_3" d="M537.788 232.749H535.326V232.743C535.189 232.741 535.056 232.698 534.944 232.624C534.834 232.548 534.75 232.443 534.707 232.32C534.7 232.303 534.692 232.284 534.687 232.265L533.964 230.08L533.946 230.025C533.915 229.941 533.856 229.871 533.779 229.82C533.701 229.772 533.611 229.746 533.518 229.751C533.424 229.755 533.336 229.787 533.262 229.842C533.191 229.896 533.138 229.97 533.115 230.055L532.383 232.255C532.383 232.255 532.383 232.257 532.383 232.261C532.378 232.282 532.369 232.307 532.36 232.329C532.315 232.449 532.232 232.555 532.12 232.629C532.011 232.703 531.878 232.743 531.743 232.743V232.749H529.277C529.169 232.766 529.072 232.819 529.001 232.897C528.933 232.977 528.895 233.077 528.897 233.18C528.895 233.246 528.912 233.311 528.942 233.372C528.971 233.432 529.016 233.484 529.072 233.527L529.092 233.541L531.005 234.913C531.118 234.991 531.203 235.097 531.253 235.221C531.302 235.342 531.311 235.477 531.28 235.604C531.271 235.64 531.261 235.678 531.245 235.711L530.518 237.909V237.915L530.512 237.932C530.502 237.972 530.496 238.015 530.496 238.059C530.494 238.112 530.503 238.169 530.525 238.222C530.547 238.274 530.579 238.321 530.619 238.361C530.66 238.403 530.71 238.437 530.764 238.458C530.818 238.482 530.878 238.492 530.937 238.494C531.014 238.494 531.09 238.475 531.156 238.437L531.234 238.384L533.135 237.026L533.176 236.994C533.282 236.926 533.406 236.888 533.534 236.888C533.664 236.886 533.788 236.92 533.896 236.988C533.919 237.002 533.941 237.017 533.962 237.034L535.851 238.389L535.905 238.427C535.975 238.469 536.054 238.488 536.137 238.488C536.196 238.488 536.255 238.475 536.309 238.452C536.363 238.431 536.412 238.397 536.453 238.357C536.495 238.317 536.527 238.268 536.549 238.215C536.568 238.162 536.579 238.108 536.577 238.053C536.577 238.008 536.57 237.966 536.558 237.922C536.558 237.915 536.552 237.909 536.55 237.903L535.822 235.697C535.809 235.667 535.8 235.64 535.793 235.608C535.781 235.557 535.773 235.504 535.773 235.452C535.773 235.352 535.795 235.257 535.838 235.17C535.881 235.08 535.944 235.001 536.023 234.94C536.04 234.928 536.056 234.917 536.074 234.904L537.968 233.55L538.025 233.508C538.074 233.465 538.113 233.415 538.14 233.358C538.167 233.301 538.18 233.239 538.18 233.178C538.18 233.072 538.142 232.971 538.07 232.893C537.998 232.815 537.898 232.762 537.788 232.749Z" fill="#B8C4D0" fill-opacity="0.5"/>
<path id="star_12_21_3" d="M550.145 232.749H547.682V232.743C547.546 232.741 547.412 232.698 547.301 232.624C547.191 232.548 547.109 232.443 547.064 232.32C547.056 232.303 547.049 232.282 547.044 232.265L546.321 230.08L546.303 230.025C546.272 229.941 546.213 229.871 546.135 229.82C546.06 229.772 545.968 229.746 545.875 229.751C545.781 229.755 545.693 229.787 545.619 229.842C545.547 229.896 545.495 229.97 545.472 230.055L544.74 232.255V232.261C544.734 232.282 544.727 232.307 544.718 232.329C544.671 232.449 544.589 232.555 544.477 232.629C544.367 232.703 544.234 232.743 544.099 232.743V232.749H541.633C541.526 232.766 541.428 232.819 541.358 232.897C541.29 232.977 541.252 233.077 541.254 233.18C541.254 233.246 541.268 233.311 541.299 233.372C541.329 233.432 541.373 233.484 541.428 233.527L541.448 233.541L543.362 234.913C543.475 234.991 543.561 235.097 543.61 235.221C543.659 235.342 543.668 235.477 543.637 235.604C543.628 235.64 543.617 235.678 543.601 235.711L542.876 237.909V237.915L542.869 237.932C542.858 237.972 542.851 238.015 542.851 238.059C542.849 238.112 542.86 238.169 542.882 238.222C542.903 238.274 542.934 238.321 542.975 238.361C543.017 238.403 543.065 238.437 543.121 238.458C543.175 238.479 543.234 238.492 543.294 238.494C543.371 238.494 543.446 238.475 543.513 238.437L543.59 238.384L545.49 237.026L545.533 236.994C545.637 236.926 545.763 236.888 545.891 236.888C546.018 236.886 546.144 236.92 546.25 236.988C546.276 237.002 546.297 237.017 546.319 237.034L548.209 238.389L548.262 238.427C548.332 238.469 548.412 238.488 548.493 238.488C548.553 238.488 548.612 238.475 548.666 238.452C548.72 238.431 548.769 238.397 548.81 238.357C548.851 238.317 548.884 238.268 548.905 238.215C548.927 238.162 548.936 238.108 548.934 238.053C548.934 238.008 548.929 237.964 548.914 237.922C548.914 237.915 548.909 237.909 548.907 237.903L548.179 235.697C548.166 235.667 548.157 235.64 548.15 235.608C548.135 235.557 548.13 235.504 548.13 235.452C548.128 235.352 548.152 235.257 548.195 235.17C548.238 235.08 548.301 235.001 548.38 234.94C548.396 234.928 548.412 234.917 548.429 234.904L550.323 233.55L550.38 233.508C550.431 233.465 550.468 233.415 550.495 233.358C550.522 233.301 550.537 233.239 550.535 233.178C550.537 233.072 550.497 232.971 550.425 232.893C550.353 232.815 550.254 232.762 550.145 232.749Z" fill="#B8C4D0" fill-opacity="0.5"/>
</g>
<g id="Group 8766_3_3">
<path id="star_12_22_3" d="M550.113 271.63H547.651V271.626C547.514 271.626 547.381 271.583 547.27 271.507C547.16 271.431 547.076 271.326 547.032 271.205C547.025 271.186 547.018 271.167 547.013 271.148L546.289 268.961L546.271 268.906C546.239 268.826 546.182 268.754 546.104 268.706C546.027 268.657 545.937 268.632 545.843 268.634C545.75 268.638 545.66 268.67 545.588 268.722C545.516 268.779 545.464 268.853 545.44 268.938L544.708 271.14C544.708 271.14 544.708 271.14 544.708 271.144C544.703 271.167 544.694 271.188 544.685 271.209C544.64 271.332 544.557 271.435 544.446 271.509C544.336 271.585 544.203 271.626 544.068 271.626V271.632H541.6C541.492 271.649 541.395 271.704 541.327 271.78C541.257 271.86 541.219 271.959 541.221 272.063C541.221 272.129 541.237 272.194 541.266 272.253C541.296 272.314 541.341 272.367 541.395 272.407L541.415 272.424L543.333 273.796C543.446 273.872 543.53 273.979 543.579 274.102C543.629 274.225 543.638 274.358 543.608 274.487C543.599 274.523 543.586 274.558 543.572 274.592L542.845 276.792V276.798L542.84 276.815C542.829 276.855 542.822 276.895 542.822 276.938C542.82 276.995 542.831 277.052 542.85 277.105C542.872 277.155 542.904 277.204 542.946 277.244C542.987 277.286 543.036 277.316 543.09 277.339C543.145 277.362 543.203 277.375 543.262 277.377C543.34 277.377 543.417 277.356 543.482 277.318L543.559 277.265L545.46 275.907L545.502 275.877C545.608 275.807 545.732 275.769 545.861 275.769C545.989 275.767 546.115 275.803 546.221 275.868C546.244 275.883 546.268 275.898 546.288 275.917L548.178 277.272L548.232 277.31C548.3 277.35 548.381 277.371 548.462 277.371C548.523 277.369 548.581 277.356 548.635 277.335C548.691 277.312 548.739 277.278 548.781 277.238C548.82 277.198 548.853 277.149 548.874 277.098C548.896 277.045 548.905 276.988 548.905 276.933C548.905 276.889 548.898 276.845 548.883 276.805C548.883 276.798 548.88 276.792 548.876 276.783L548.147 274.58C548.135 274.55 548.126 274.52 548.119 274.489C548.106 274.438 548.099 274.385 548.099 274.332C548.099 274.235 548.12 274.138 548.164 274.051C548.207 273.963 548.27 273.884 548.349 273.823C548.365 273.81 548.381 273.798 548.399 273.785L550.293 272.431L550.349 272.388C550.399 272.348 550.439 272.295 550.466 272.238C550.491 272.183 550.505 272.12 550.504 272.057C550.505 271.953 550.466 271.854 550.394 271.776C550.322 271.697 550.223 271.645 550.113 271.63Z" fill="#B8C4D0" fill-opacity="0.5"/>
<g id="Group 8204_5_3">
<path id="star 12_8_3" d="M513.013 271.632H510.551V271.628C510.414 271.625 510.281 271.585 510.17 271.509C510.06 271.433 509.977 271.328 509.932 271.207C509.925 271.188 509.918 271.169 509.913 271.15L509.189 268.963L509.171 268.908C509.141 268.826 509.083 268.756 509.006 268.707C508.929 268.657 508.837 268.631 508.743 268.636C508.652 268.64 508.562 268.669 508.49 268.724C508.416 268.781 508.364 268.855 508.34 268.94L507.608 271.142V271.144C507.603 271.169 507.596 271.19 507.587 271.211C507.542 271.334 507.457 271.437 507.348 271.511C507.236 271.585 507.105 271.625 506.968 271.628V271.634H504.502C504.394 271.651 504.297 271.704 504.229 271.782C504.159 271.86 504.121 271.961 504.123 272.065C504.123 272.13 504.139 272.196 504.169 272.255C504.198 272.314 504.243 272.367 504.297 272.409L504.317 272.426L506.233 273.798C506.322 273.861 506.398 273.941 506.448 274.034C506.499 274.129 506.526 274.235 506.524 274.341C506.524 274.389 506.518 274.438 506.506 274.486C506.499 274.522 506.486 274.558 506.472 274.592L505.745 276.792V276.798L505.74 276.815C505.727 276.855 505.722 276.895 505.722 276.937C505.72 276.995 505.731 277.052 505.752 277.104C505.772 277.155 505.804 277.204 505.846 277.244C505.887 277.286 505.936 277.318 505.991 277.339C506.045 277.364 506.103 277.375 506.164 277.377C506.242 277.377 506.317 277.356 506.384 277.32L506.461 277.265L508.36 275.906L508.404 275.877C508.508 275.807 508.634 275.769 508.761 275.769C508.889 275.767 509.015 275.803 509.121 275.868C509.144 275.883 509.168 275.9 509.188 275.917L511.078 277.271L511.132 277.309C511.2 277.35 511.281 277.371 511.364 277.371C511.423 277.369 511.481 277.356 511.535 277.335C511.591 277.311 511.639 277.28 511.681 277.238C511.72 277.197 511.753 277.151 511.774 277.098C511.796 277.045 511.807 276.988 511.805 276.933C511.805 276.891 511.798 276.844 511.783 276.804C511.783 276.798 511.78 276.792 511.778 276.783L511.049 274.579C511.037 274.55 511.028 274.52 511.02 274.489C510.99 274.37 510.995 274.243 511.037 274.125C511.076 274.007 511.152 273.903 511.252 273.823C511.269 273.81 511.285 273.798 511.303 273.787L513.195 272.431L513.253 272.39C513.303 272.348 513.343 272.297 513.368 272.24C513.395 272.183 513.409 272.12 513.407 272.059C513.407 271.955 513.368 271.854 513.296 271.775C513.224 271.697 513.123 271.647 513.013 271.632Z" fill="#B8C4D0" fill-opacity="0.5"/>
<path id="star_12_23_3" d="M525.388 271.632H522.923V271.628C522.787 271.626 522.654 271.583 522.544 271.509C522.433 271.433 522.35 271.328 522.305 271.207C522.298 271.188 522.29 271.167 522.285 271.15L521.562 268.963L521.544 268.908C521.513 268.826 521.456 268.756 521.378 268.708C521.301 268.657 521.209 268.631 521.116 268.636C521.024 268.64 520.934 268.67 520.862 268.724C520.789 268.782 520.736 268.855 520.713 268.94L519.981 271.142V271.144C519.976 271.167 519.968 271.19 519.959 271.211C519.914 271.334 519.83 271.438 519.72 271.511C519.609 271.585 519.477 271.626 519.341 271.628V271.634H516.875C516.767 271.649 516.67 271.702 516.601 271.782C516.531 271.86 516.493 271.962 516.495 272.065C516.495 272.131 516.511 272.196 516.54 272.255C516.571 272.314 516.616 272.367 516.67 272.41L516.689 272.426L518.605 273.798C518.717 273.874 518.803 273.982 518.851 274.104C518.9 274.227 518.909 274.36 518.878 274.487C518.871 274.525 518.859 274.563 518.844 274.596L518.118 276.792V276.802L518.112 276.815C518.1 276.857 518.094 276.9 518.094 276.942C518.092 276.997 518.103 277.054 518.123 277.105C518.145 277.157 518.177 277.206 518.218 277.246C518.26 277.286 518.308 277.32 518.362 277.343C518.418 277.364 518.475 277.377 518.535 277.377C518.612 277.379 518.69 277.36 518.756 277.322L518.833 277.269L520.733 275.909L520.774 275.879C520.88 275.811 521.004 275.773 521.134 275.771C521.262 275.771 521.387 275.805 521.494 275.873C521.517 275.885 521.54 275.902 521.56 275.919L523.45 277.271L523.504 277.312C523.573 277.352 523.654 277.375 523.735 277.375C523.796 277.373 523.853 277.36 523.907 277.337C523.963 277.314 524.012 277.282 524.053 277.242C524.093 277.202 524.125 277.153 524.147 277.1C524.168 277.05 524.177 276.993 524.177 276.936C524.177 276.893 524.17 276.849 524.156 276.807C524.156 276.8 524.152 276.792 524.148 276.785L523.42 274.58C523.407 274.552 523.398 274.522 523.391 274.493C523.379 274.44 523.371 274.387 523.371 274.334C523.371 274.239 523.393 274.142 523.436 274.055C523.479 273.965 523.542 273.886 523.621 273.825C523.638 273.813 523.654 273.8 523.672 273.789L525.566 272.433L525.621 272.39C525.672 272.35 525.711 272.3 525.738 272.243C525.764 272.183 525.778 272.122 525.776 272.061C525.778 271.957 525.738 271.856 525.668 271.778C525.596 271.7 525.496 271.649 525.388 271.632Z" fill="#B8C4D0" fill-opacity="0.5"/>
<path id="star_12_24_3" d="M537.769 271.632H535.305V271.628C535.168 271.626 535.035 271.583 534.925 271.509C534.814 271.433 534.731 271.328 534.686 271.207C534.679 271.188 534.672 271.167 534.666 271.15L533.943 268.963L533.925 268.908C533.895 268.826 533.835 268.756 533.76 268.708C533.683 268.657 533.591 268.631 533.497 268.636C533.404 268.64 533.316 268.67 533.242 268.724C533.17 268.782 533.118 268.855 533.094 268.94L532.362 271.142V271.144C532.357 271.167 532.35 271.19 532.341 271.211C532.294 271.334 532.211 271.438 532.1 271.511C531.99 271.585 531.857 271.626 531.722 271.628V271.634H529.256C529.148 271.649 529.051 271.702 528.981 271.782C528.912 271.86 528.875 271.962 528.877 272.065C528.877 272.131 528.891 272.196 528.921 272.255C528.952 272.314 528.995 272.367 529.051 272.41L529.071 272.426L530.986 273.798C531.098 273.874 531.184 273.982 531.233 274.104C531.281 274.227 531.29 274.36 531.26 274.487C531.251 274.525 531.24 274.563 531.224 274.596L530.499 276.792V276.802L530.494 276.815C530.481 276.857 530.476 276.9 530.476 276.942C530.474 276.997 530.483 277.054 530.504 277.105C530.526 277.157 530.558 277.206 530.6 277.246C530.641 277.286 530.69 277.32 530.743 277.343C530.799 277.364 530.857 277.377 530.916 277.377C530.994 277.379 531.069 277.36 531.136 277.322L531.213 277.269L533.114 275.909L533.156 275.879C533.262 275.811 533.386 275.773 533.515 275.771C533.643 275.771 533.769 275.805 533.875 275.873C533.898 275.887 533.92 275.902 533.942 275.919L535.832 277.271L535.884 277.312C535.954 277.352 536.035 277.375 536.116 277.375C536.175 277.373 536.235 277.36 536.289 277.337C536.343 277.314 536.393 277.282 536.433 277.242C536.474 277.202 536.506 277.153 536.528 277.1C536.55 277.05 536.559 276.993 536.557 276.936C536.557 276.893 536.551 276.849 536.537 276.807C536.537 276.8 536.533 276.792 536.532 276.785L535.801 274.58C535.791 274.552 535.78 274.522 535.773 274.493C535.76 274.44 535.753 274.387 535.753 274.334C535.753 274.239 535.775 274.142 535.818 274.055C535.861 273.965 535.924 273.886 536.003 273.825C536.019 273.813 536.037 273.8 536.053 273.789L537.947 272.433L538.005 272.39C538.055 272.35 538.093 272.3 538.12 272.243C538.147 272.183 538.159 272.122 538.159 272.061C538.161 271.957 538.122 271.856 538.05 271.778C537.978 271.7 537.877 271.647 537.769 271.632Z" fill="#B8C4D0" fill-opacity="0.5"/>
</g>
</g>
<g id="Group 8767_3_3">
<path id="star_12_25_3" d="M550.113 312.009H547.651V312.007C547.514 312.005 547.381 311.963 547.27 311.887C547.16 311.813 547.076 311.707 547.032 311.584C547.025 311.567 547.018 311.546 547.013 311.527L546.289 309.34L546.271 309.288C546.239 309.205 546.182 309.133 546.104 309.085C546.027 309.036 545.937 309.011 545.843 309.015C545.75 309.017 545.66 309.049 545.588 309.104C545.516 309.159 545.464 309.235 545.44 309.317L544.708 311.519C544.708 311.519 544.708 311.519 544.708 311.523C544.703 311.546 544.694 311.567 544.685 311.591C544.64 311.711 544.557 311.815 544.446 311.891C544.336 311.965 544.203 312.005 544.068 312.007V312.011H541.6C541.492 312.028 541.395 312.081 541.327 312.161C541.257 312.239 541.219 312.339 541.221 312.442C541.221 312.508 541.237 312.573 541.266 312.635C541.296 312.694 541.341 312.747 541.395 312.789L541.415 312.804L543.333 314.175C543.446 314.251 543.53 314.359 543.579 314.481C543.629 314.604 543.638 314.737 543.608 314.866C543.599 314.902 543.586 314.938 543.572 314.974L542.845 317.171V317.177L542.84 317.194C542.829 317.234 542.822 317.277 542.822 317.319C542.82 317.374 542.831 317.431 542.85 317.482C542.872 317.535 542.904 317.583 542.946 317.623C542.987 317.666 543.036 317.697 543.09 317.72C543.145 317.742 543.203 317.754 543.262 317.756C543.34 317.756 543.417 317.735 543.482 317.697L543.559 317.644L545.46 316.286L545.502 316.254C545.608 316.186 545.732 316.148 545.861 316.148C545.989 316.148 546.115 316.182 546.221 316.25C546.244 316.265 546.268 316.277 546.288 316.296L548.178 317.649L548.232 317.689C548.3 317.729 548.381 317.75 548.462 317.75C548.523 317.748 548.581 317.735 548.635 317.714C548.691 317.691 548.739 317.657 548.781 317.619C548.82 317.579 548.853 317.528 548.874 317.477C548.896 317.425 548.905 317.37 548.905 317.313C548.905 317.268 548.898 317.226 548.883 317.184C548.883 317.177 548.88 317.169 548.876 317.163L548.147 314.957C548.135 314.929 548.126 314.898 548.119 314.87C548.106 314.819 548.099 314.767 548.099 314.712C548.099 314.614 548.12 314.519 548.164 314.431C548.207 314.342 548.27 314.264 548.349 314.202C548.365 314.19 548.381 314.177 548.399 314.166L550.293 312.81L550.349 312.768C550.399 312.725 550.439 312.675 550.466 312.62C550.491 312.563 550.505 312.501 550.504 312.438C550.505 312.334 550.466 312.233 550.394 312.155C550.322 312.077 550.223 312.024 550.113 312.009Z" fill="#B8C4D0" fill-opacity="0.5"/>
<g id="Group 8204_6_3">
<path id="star 12_9_3" d="M513.013 312.013H510.551V312.008C510.414 312.006 510.281 311.966 510.17 311.89C510.06 311.814 509.977 311.708 509.932 311.588C509.925 311.567 509.918 311.55 509.913 311.529L509.189 309.344L509.171 309.289C509.141 309.209 509.083 309.137 509.006 309.088C508.929 309.038 508.837 309.014 508.743 309.016C508.652 309.021 508.562 309.052 508.49 309.105C508.416 309.16 508.364 309.236 508.34 309.321L507.608 311.522V311.525C507.603 311.55 507.596 311.571 507.587 311.592C507.542 311.715 507.457 311.818 507.348 311.892C507.236 311.968 507.105 312.006 506.968 312.008V312.013H504.502C504.394 312.032 504.297 312.085 504.229 312.163C504.159 312.241 504.121 312.342 504.123 312.446C504.123 312.511 504.139 312.577 504.169 312.636C504.198 312.697 504.243 312.748 504.297 312.79L504.317 312.805L506.233 314.181C506.322 314.242 506.398 314.322 506.448 314.415C506.499 314.51 506.526 314.614 506.524 314.722C506.524 314.768 506.518 314.817 506.506 314.867C506.499 314.903 506.486 314.939 506.472 314.973L505.745 317.173V317.179L505.74 317.196C505.727 317.236 505.722 317.278 505.722 317.318C505.72 317.375 505.731 317.432 505.752 317.485C505.772 317.536 505.804 317.585 505.846 317.625C505.887 317.667 505.936 317.699 505.991 317.72C506.045 317.743 506.103 317.756 506.164 317.758C506.242 317.758 506.317 317.737 506.383 317.699L506.461 317.646L508.36 316.287L508.404 316.258C508.508 316.188 508.634 316.15 508.761 316.15C508.889 316.148 509.015 316.184 509.121 316.249C509.144 316.264 509.168 316.279 509.188 316.298L511.078 317.652L511.132 317.69C511.2 317.733 511.281 317.752 511.364 317.752C511.423 317.749 511.481 317.737 511.535 317.716C511.591 317.692 511.639 317.661 511.681 317.618C511.72 317.578 511.753 317.53 511.774 317.479C511.796 317.426 511.807 317.369 511.805 317.316C511.805 317.27 511.798 317.225 511.783 317.185C511.783 317.177 511.78 317.173 511.778 317.164L511.049 314.96C511.037 314.931 511.028 314.901 511.02 314.869C510.99 314.751 510.995 314.622 511.037 314.506C511.076 314.388 511.152 314.284 511.252 314.204C511.269 314.191 511.285 314.181 511.303 314.168L513.195 312.814L513.253 312.771C513.303 312.729 513.343 312.678 513.368 312.619C513.395 312.564 513.409 312.501 513.407 312.44C513.407 312.336 513.368 312.235 513.296 312.156C513.224 312.078 513.123 312.027 513.013 312.013Z" fill="#B8C4D0" fill-opacity="0.5"/>
<path id="star_12_26_3" d="M525.388 312.009H522.923V312.007C522.787 312.005 522.654 311.963 522.544 311.887C522.433 311.813 522.35 311.707 522.305 311.584C522.298 311.568 522.29 311.546 522.285 311.527L521.562 309.341L521.544 309.288C521.513 309.205 521.456 309.133 521.378 309.085C521.301 309.036 521.209 309.011 521.116 309.015C521.024 309.017 520.934 309.049 520.862 309.104C520.789 309.159 520.736 309.235 520.713 309.317L519.981 311.519V311.523C519.976 311.546 519.968 311.568 519.959 311.591C519.914 311.711 519.83 311.815 519.72 311.891C519.609 311.965 519.477 312.005 519.341 312.007V312.011H516.875C516.767 312.028 516.67 312.081 516.601 312.161C516.531 312.24 516.493 312.339 516.495 312.442C516.495 312.508 516.511 312.573 516.54 312.635C516.571 312.694 516.616 312.747 516.67 312.789L516.689 312.804L518.605 314.177C518.717 314.253 518.803 314.361 518.851 314.481C518.9 314.606 518.909 314.739 518.878 314.866C518.871 314.904 518.858 314.938 518.844 314.976L518.118 317.171V317.18L518.112 317.194C518.1 317.237 518.094 317.279 518.094 317.319C518.092 317.376 518.103 317.431 518.123 317.484C518.145 317.537 518.177 317.585 518.218 317.625C518.26 317.666 518.308 317.697 518.362 317.723C518.418 317.744 518.475 317.757 518.535 317.757C518.612 317.759 518.69 317.737 518.756 317.699L518.833 317.645L520.733 316.288L520.774 316.256C520.88 316.189 521.004 316.151 521.134 316.149C521.262 316.149 521.387 316.184 521.494 316.252C521.517 316.265 521.54 316.28 521.56 316.299L523.45 317.651L523.504 317.691C523.573 317.731 523.654 317.752 523.735 317.752C523.796 317.75 523.853 317.737 523.907 317.716C523.963 317.693 524.012 317.659 524.053 317.619C524.093 317.579 524.125 317.53 524.147 317.478C524.168 317.427 524.177 317.372 524.177 317.315C524.177 317.271 524.17 317.228 524.156 317.186C524.156 317.178 524.152 317.171 524.148 317.163L523.42 314.959C523.407 314.931 523.398 314.9 523.391 314.872C523.379 314.819 523.371 314.767 523.371 314.714C523.371 314.617 523.393 314.522 523.436 314.431C523.479 314.344 523.542 314.266 523.621 314.205C523.638 314.19 523.654 314.179 523.672 314.169L525.566 312.812L525.621 312.77C525.672 312.728 525.711 312.677 525.738 312.622C525.764 312.563 525.778 312.502 525.776 312.438C525.778 312.335 525.738 312.235 525.668 312.155C525.596 312.077 525.496 312.024 525.388 312.009Z" fill="#B8C4D0" fill-opacity="0.5"/>
<path id="star_12_27_3" d="M537.769 312.009H535.305V312.007C535.168 312.005 535.035 311.963 534.925 311.887C534.814 311.813 534.731 311.707 534.686 311.584C534.679 311.568 534.672 311.546 534.666 311.527L533.943 309.341L533.925 309.288C533.895 309.205 533.835 309.133 533.76 309.085C533.683 309.036 533.591 309.011 533.497 309.015C533.404 309.017 533.316 309.049 533.242 309.104C533.17 309.159 533.118 309.235 533.094 309.317L532.362 311.519C532.362 311.519 532.362 311.519 532.362 311.523C532.357 311.546 532.35 311.568 532.341 311.591C532.294 311.711 532.211 311.815 532.1 311.891C531.99 311.965 531.857 312.005 531.722 312.007V312.011H529.256C529.148 312.028 529.051 312.081 528.981 312.161C528.912 312.24 528.875 312.339 528.877 312.442C528.877 312.508 528.891 312.573 528.921 312.635C528.952 312.694 528.995 312.747 529.051 312.789L529.071 312.804L530.986 314.177C531.098 314.253 531.184 314.361 531.233 314.481C531.281 314.606 531.29 314.739 531.26 314.866C531.251 314.904 531.24 314.938 531.224 314.976L530.499 317.171V317.18L530.494 317.194C530.481 317.237 530.476 317.279 530.476 317.319C530.474 317.376 530.483 317.431 530.504 317.484C530.526 317.537 530.558 317.585 530.6 317.625C530.641 317.666 530.69 317.697 530.743 317.723C530.799 317.744 530.857 317.757 530.916 317.757C530.994 317.759 531.069 317.737 531.136 317.699L531.213 317.645L533.114 316.288L533.156 316.256C533.262 316.189 533.386 316.151 533.515 316.149C533.643 316.149 533.769 316.184 533.875 316.252C533.898 316.265 533.92 316.28 533.942 316.299L535.832 317.651L535.884 317.691C535.954 317.731 536.035 317.752 536.116 317.752C536.176 317.75 536.235 317.737 536.289 317.716C536.343 317.693 536.393 317.659 536.433 317.619C536.474 317.579 536.506 317.53 536.528 317.478C536.55 317.427 536.559 317.372 536.557 317.315C536.557 317.271 536.551 317.228 536.537 317.186C536.537 317.178 536.533 317.171 536.532 317.163L535.801 314.959C535.791 314.929 535.78 314.9 535.773 314.872C535.76 314.819 535.753 314.767 535.753 314.714C535.753 314.617 535.775 314.522 535.818 314.431C535.861 314.344 535.924 314.266 536.003 314.205C536.019 314.19 536.037 314.179 536.053 314.169L537.947 312.812L538.005 312.77C538.055 312.728 538.093 312.677 538.12 312.622C538.147 312.563 538.159 312.502 538.159 312.438C538.161 312.335 538.122 312.233 538.05 312.155C537.978 312.077 537.877 312.024 537.769 312.009Z" fill="#B8C4D0" fill-opacity="0.5"/>
</g>
</g>
<g id="Group 8768_3_3">
<path id="Line 133 (Stroke)_7_3" fill-rule="evenodd" clip-rule="evenodd" d="M585.749 234.706C585.749 233.142 587.003 231.874 588.548 231.874H596.945C598.49 231.874 599.744 233.142 599.744 234.706C599.744 236.269 598.49 237.537 596.945 237.537H588.548C587.003 237.537 585.749 236.269 585.749 234.706Z" fill="#B8C4D0" fill-opacity="0.5"/>
<path id="$_7_3" d="M578.747 236.707C578.747 235.221 577.867 234.241 576.468 233.634L575.379 233.178L575.448 230.478C576.088 230.564 576.882 230.968 577.47 231.608L578.54 229.939C577.85 229.127 576.675 228.654 575.64 228.572L575.655 227.625H574.413L574.378 228.536C573.445 228.622 572.546 228.91 571.959 229.415C571.321 229.954 570.819 230.748 570.819 231.862C570.819 233.246 571.647 233.987 572.028 234.275C572.408 234.579 572.927 234.832 573.583 235.103L574.171 235.339L574.118 238.156C573.374 238.139 572.132 237.55 571.63 236.772L570.353 238.46C571.216 239.523 572.632 240.13 573.928 240.18L573.895 241.076H575.139L575.172 240.149C575.829 240.098 576.813 239.777 577.417 239.303C578.091 238.782 578.747 237.905 578.747 236.707ZM574.361 230.461L574.309 232.806L574.118 232.724C573.686 232.519 573.238 232.216 573.238 231.591C573.238 230.934 573.704 230.511 574.361 230.461ZM576.364 237.026C576.364 237.683 575.743 238.139 575.205 238.19L575.258 235.675L575.536 235.811C576.052 236.064 576.364 236.383 576.364 237.026Z" fill="#B8C4D0" fill-opacity="0.5"/>
</g>
<g id="Group 8769_3_3">
<path id="Line 133 (Stroke)_8_3" fill-rule="evenodd" clip-rule="evenodd" d="M585.749 273.589C585.749 272.025 587.003 270.757 588.548 270.757H606.737C608.284 270.757 609.537 272.025 609.537 273.589C609.537 275.152 608.284 276.42 606.737 276.42H588.548C587.003 276.42 585.749 275.152 585.749 273.589Z" fill="#B8C4D0" fill-opacity="0.5"/>
<path id="$_8_3" d="M578.747 275.587C578.747 274.102 577.867 273.124 576.468 272.517L575.379 272.061L575.448 269.36C576.088 269.445 576.882 269.851 577.47 270.491L578.54 268.822C577.85 268.01 576.675 267.537 575.64 267.455L575.655 266.508H574.413L574.378 267.419C573.445 267.505 572.546 267.791 571.959 268.298C571.321 268.836 570.819 269.631 570.819 270.744C570.819 272.128 571.647 272.87 572.028 273.157C572.408 273.462 572.927 273.715 573.583 273.984L574.171 274.22L574.118 277.039C573.374 277.022 572.132 276.433 571.63 275.657L570.353 277.343C571.216 278.406 572.632 279.015 573.928 279.065L573.895 279.959H575.139L575.172 279.029C575.829 278.979 576.813 278.66 577.417 278.186C578.091 277.662 578.747 276.788 578.747 275.587ZM574.361 269.344L574.309 271.689L574.118 271.604C573.686 271.402 573.238 271.099 573.238 270.474C573.238 269.815 573.704 269.394 574.361 269.344ZM576.364 275.909C576.364 276.568 575.743 277.022 575.205 277.073L575.258 274.558L575.536 274.694C576.052 274.947 576.364 275.266 576.364 275.909Z" fill="#B8C4D0" fill-opacity="0.5"/>
</g>
<g id="Group 8770_3_3">
<path id="Line 133 (Stroke)_9_3" fill-rule="evenodd" clip-rule="evenodd" d="M585.749 313.97C585.749 312.406 587.003 311.139 588.548 311.139H603.532C605.077 311.139 606.33 312.406 606.33 313.97C606.33 315.534 605.077 316.801 603.532 316.801H588.548C587.003 316.801 585.749 315.534 585.749 313.97Z" fill="#B8C4D0" fill-opacity="0.5"/>
<path id="$_9_3" d="M578.747 315.969C578.747 314.483 577.867 313.505 576.468 312.899L575.379 312.442L575.448 309.742C576.088 309.826 576.882 310.232 577.47 310.872L578.54 309.203C577.85 308.392 576.675 307.918 575.64 307.836L575.655 306.889H574.413L574.378 307.8C573.445 307.885 572.546 308.172 571.959 308.679C571.321 309.22 570.819 310.012 570.819 311.126C570.819 312.51 571.647 313.254 572.028 313.539C572.408 313.843 572.927 314.097 573.583 314.365L574.171 314.602L574.118 317.42C573.374 317.404 572.132 316.812 571.63 316.036L570.353 317.725C571.216 318.788 572.632 319.396 573.928 319.447L573.895 320.341H575.139L575.172 319.411C575.829 319.36 576.813 319.041 577.417 318.568C578.091 318.044 578.747 317.167 578.747 315.969ZM574.361 309.725L574.309 312.07L574.118 311.986C573.686 311.783 573.238 311.481 573.238 310.855C573.238 310.196 573.704 309.776 574.361 309.725ZM576.364 316.29C576.364 316.949 575.743 317.404 575.205 317.454L575.258 314.94L575.536 315.075C576.052 315.327 576.364 315.648 576.364 316.29Z" fill="#B8C4D0" fill-opacity="0.5"/>
</g>
<g id="Group 8771_3_3">
<path id="Line 134 (Stroke)_7_3" fill-rule="evenodd" clip-rule="evenodd" d="M406.484 233.996C406.484 232.432 407.737 231.162 409.283 231.162H419.043C420.589 231.162 421.841 232.432 421.841 233.996C421.841 235.559 420.589 236.827 419.043 236.827H409.283C407.737 236.827 406.484 235.559 406.484 233.996Z" fill="#B8C4D0" fill-opacity="0.5"/>
<path id="#_7_3" d="M399.489 233.307V231.6H397.909L398.541 228.333H396.645L396.013 231.6H394.197L394.829 228.333H392.933L392.301 231.6H390.279V233.307H391.985L391.59 235.378H389.694V237.098H391.274L390.642 240.366H392.538L393.17 237.098H394.987L394.355 240.366H396.251L396.882 237.098H398.889V235.378H397.198L397.593 233.307H399.489ZM395.698 233.307L395.303 235.378H393.486L393.881 233.307H395.698Z" fill="#B8C4D0" fill-opacity="0.5"/>
</g>
<g id="Group 8772_3_3">
<path id="Line 134 (Stroke)_8_3" fill-rule="evenodd" clip-rule="evenodd" d="M406.484 272.881C406.484 271.315 407.737 270.048 409.283 270.048H426.284C427.829 270.048 429.082 271.315 429.082 272.881C429.082 274.445 427.829 275.71 426.284 275.71H409.283C407.737 275.71 406.484 274.445 406.484 272.881Z" fill="#B8C4D0" fill-opacity="0.5"/>
<path id="#_8_3" d="M399.489 272.19V270.485H397.909L398.541 267.216H396.645L396.013 270.485H394.197L394.829 267.216H392.933L392.301 270.485H390.279V272.19H391.985L391.59 274.263H389.694V275.983H391.274L390.642 279.252H392.538L393.17 275.983H394.987L394.355 279.252H396.251L396.882 275.983H398.889V274.263H397.198L397.593 272.19H399.489ZM395.698 272.19L395.303 274.263H393.486L393.881 272.19H395.698Z" fill="#B8C4D0" fill-opacity="0.5"/>
</g>
<g id="Group 8773_3_3">
<path id="Line 134 (Stroke)_9_3" fill-rule="evenodd" clip-rule="evenodd" d="M406.484 313.97C406.484 312.406 407.737 311.138 409.283 311.138H418.378C419.923 311.138 421.176 312.406 421.176 313.97C421.176 315.533 419.923 316.801 418.378 316.801H409.283C407.737 316.801 406.484 315.533 406.484 313.97Z" fill="#B8C4D0" fill-opacity="0.5"/>
<path id="#_9_3" d="M399.489 313.281V311.576H397.909L398.541 308.307H396.645L396.013 311.576H394.197L394.829 308.307H392.933L392.301 311.576H390.279V313.281H391.985L391.59 315.352H389.694V317.074H391.274L390.642 320.341H392.538L393.17 317.074H394.987L394.355 320.341H396.251L396.882 317.074H398.889V315.352H397.198L397.593 313.281H399.489ZM395.698 313.281L395.303 315.352H393.486L393.881 313.281H395.698Z" fill="#B8C4D0" fill-opacity="0.5"/>
</g>
<g id="Group 8774_3_3">
<path id="Line 136 (Stroke)_5_3" fill-rule="evenodd" clip-rule="evenodd" d="M444.909 272.881C444.909 271.315 446.161 270.047 447.706 270.047H458.9C460.445 270.047 461.699 271.315 461.699 272.881C461.699 274.444 460.445 275.71 458.9 275.71H447.706C446.161 275.71 444.909 274.444 444.909 272.881Z" fill="#B8C4D0" fill-opacity="0.5"/>
<g id="Group 8680_5_3">
<g id=".jpg_5_3">
<path id="Vector_36" d="M466.612 273.136C466.612 272.731 466.313 272.481 465.908 272.481C465.492 272.481 465.193 272.731 465.193 273.136C465.193 273.529 465.492 273.781 465.908 273.781C466.313 273.781 466.612 273.529 466.612 273.136Z" fill="#B8C4D0" fill-opacity="0.5"/>
<path id="Vector_37" d="M469.423 267.121C469.423 266.768 469.146 266.508 468.761 266.508C468.367 266.508 468.09 266.768 468.09 267.121C468.09 267.474 468.367 267.733 468.761 267.733C469.146 267.733 469.423 267.474 469.423 267.121ZM469.274 273.686V268.741H468.251V273.654C468.251 274.341 468.186 274.911 467.526 274.911C467.26 274.911 467.046 274.837 467.046 274.837L467.035 275.63C467.035 275.63 467.26 275.71 467.675 275.71C468.943 275.71 469.274 274.734 469.274 273.686Z" fill="#B8C4D0" fill-opacity="0.5"/>
<path id="Vector_38" d="M476.015 271.203C476.015 269.739 475.067 268.649 473.574 268.649C472.828 268.649 472.22 268.94 471.772 269.521H471.75V268.742H470.77V275.607H471.793V272.898L471.804 272.908C472.166 273.456 472.752 273.789 473.553 273.789C475.056 273.789 476.015 272.667 476.015 271.203ZM474.97 271.193C474.97 272.181 474.373 272.938 473.36 272.938C472.347 272.938 471.75 272.181 471.75 271.193C471.75 270.206 472.347 269.46 473.36 269.46C474.373 269.46 474.97 270.206 474.97 271.193Z" fill="#B8C4D0" fill-opacity="0.5"/>
<path id="Vector_39" d="M481.983 272.636V268.742H480.97L480.981 269.521H480.949C480.65 269.063 480.064 268.649 479.179 268.649C477.879 268.649 476.738 269.564 476.738 271.129C476.738 272.699 477.879 273.612 479.179 273.612C480.032 273.612 480.607 273.23 480.949 272.729H480.97V272.98C480.97 274.142 480.49 274.901 479.201 274.901C478.443 274.901 477.654 274.506 477.388 274.278L476.907 274.975C477.057 275.078 477.922 275.71 479.168 275.71C480.427 275.71 481.055 275.214 481.429 274.766C481.801 274.328 481.983 273.728 481.983 272.636ZM481.003 271.129C481.003 272.065 480.438 272.803 479.393 272.803C478.359 272.803 477.783 272.065 477.783 271.129C477.783 270.195 478.359 269.447 479.393 269.447C480.438 269.447 481.003 270.195 481.003 271.129Z" fill="#B8C4D0" fill-opacity="0.5"/>
</g>
</g>
</g>
<g id="Group 8775_3_3">
<path id="Line 136 (Stroke)_6_3" fill-rule="evenodd" clip-rule="evenodd" d="M444.909 313.972C444.909 312.41 446.161 311.143 447.706 311.143H469.394C470.941 311.143 472.192 312.41 472.192 313.972C472.192 315.538 470.941 316.805 469.394 316.805H447.706C446.161 316.805 444.909 315.538 444.909 313.972Z" fill="#B8C4D0" fill-opacity="0.5"/>
<g id="Group 8680_6_3">
<g id=".jpg_6_3">
<path id="Vector_40" d="M477.098 314.23C477.098 313.824 476.799 313.575 476.394 313.575C475.978 313.575 475.679 313.824 475.679 314.23C475.679 314.625 475.978 314.874 476.394 314.874C476.799 314.874 477.098 314.625 477.098 314.23Z" fill="#B8C4D0" fill-opacity="0.5"/>
<path id="Vector_41" d="M479.909 308.214C479.909 307.861 479.632 307.601 479.247 307.601C478.853 307.601 478.576 307.861 478.576 308.214C478.576 308.569 478.853 308.829 479.247 308.829C479.632 308.829 479.909 308.569 479.909 308.214ZM479.76 314.779V309.834H478.736V314.747C478.736 315.434 478.672 316.004 478.012 316.004C477.745 316.004 477.531 315.932 477.531 315.932L477.521 316.721C477.521 316.721 477.745 316.805 478.161 316.805C479.429 316.805 479.76 315.829 479.76 314.779Z" fill="#B8C4D0" fill-opacity="0.5"/>
<path id="Vector_42" d="M486.502 312.296C486.502 310.832 485.554 309.742 484.061 309.742C483.314 309.742 482.707 310.031 482.259 310.614H482.237V309.835H481.257V316.702H482.28V313.989L482.291 313.999C482.653 314.551 483.239 314.883 484.039 314.883C485.543 314.883 486.502 313.763 486.502 312.296ZM485.457 312.286C485.457 313.272 484.859 314.031 483.847 314.031C482.834 314.031 482.237 313.272 482.237 312.286C482.237 311.299 482.834 310.551 483.847 310.551C484.859 310.551 485.457 311.299 485.457 312.286Z" fill="#B8C4D0" fill-opacity="0.5"/>
<path id="Vector_43" d="M492.469 313.729V309.835H491.457L491.468 310.614H491.435C491.137 310.158 490.55 309.742 489.665 309.742C488.365 309.742 487.225 310.654 487.225 312.224C487.225 313.792 488.365 314.707 489.665 314.707C490.518 314.707 491.093 314.323 491.435 313.824H491.457V314.073C491.457 315.235 490.977 315.994 489.687 315.994C488.93 315.994 488.14 315.599 487.874 315.371L487.395 316.066C487.545 316.171 488.408 316.805 489.655 316.805C490.914 316.805 491.541 316.307 491.915 315.859C492.288 315.423 492.469 314.819 492.469 313.729ZM491.489 312.224C491.489 313.158 490.924 313.896 489.879 313.896C488.845 313.896 488.27 313.158 488.27 312.224C488.27 311.29 488.845 310.54 489.879 310.54C490.924 310.54 491.489 311.29 491.489 312.224Z" fill="#B8C4D0" fill-opacity="0.5"/>
</g>
</g>
</g>
<g id="Group 8776_3_3">
<path id="Line 135 (Stroke)_3_3" fill-rule="evenodd" clip-rule="evenodd" d="M444.909 233.995C444.909 232.432 446.161 231.162 447.706 231.162H458.9C460.445 231.162 461.699 232.432 461.699 233.995C461.699 235.559 460.445 236.827 458.9 236.827H447.706C446.161 236.827 444.909 235.559 444.909 233.995Z" fill="#B8C4D0" fill-opacity="0.5"/>
<g id="Group 8681_3_3">
<g id=".png_3_3">
<path id="Vector_44" d="M466.63 235.175C466.63 234.75 466.327 234.488 465.917 234.488C465.495 234.488 465.193 234.75 465.193 235.175C465.193 235.593 465.495 235.855 465.917 235.855C466.327 235.855 466.63 235.593 466.63 235.175Z" fill="#B8C4D0" fill-opacity="0.5"/>
<path id="Vector_45" d="M473.601 233.144C473.601 231.604 472.641 230.458 471.13 230.458C470.373 230.458 469.758 230.763 469.304 231.375H469.283V230.556H468.29V237.776H469.326V234.923L469.337 234.936C469.704 235.515 470.297 235.863 471.108 235.863C472.63 235.863 473.601 234.684 473.601 233.144ZM472.544 233.133C472.544 234.171 471.94 234.967 470.912 234.967C469.887 234.967 469.283 234.171 469.283 233.133C469.283 232.096 469.887 231.308 470.912 231.308C471.94 231.308 472.544 232.096 472.544 233.133Z" fill="#B8C4D0" fill-opacity="0.5"/>
<path id="Vector_46" d="M479.136 235.745V232.675C479.136 231.43 478.758 230.458 477.301 230.458C476.556 230.458 476.004 230.862 475.734 231.375H475.701L475.712 230.556H474.676V235.745H475.712V233.133C475.712 232.14 476.068 231.32 477.031 231.32C477.948 231.32 478.099 231.976 478.099 232.85V235.745H479.136Z" fill="#B8C4D0" fill-opacity="0.5"/>
<path id="Vector_47" d="M485.482 234.651V230.556H484.457L484.468 231.375H484.435C484.133 230.894 483.54 230.458 482.644 230.458C481.326 230.458 480.171 231.42 480.171 233.068C480.171 234.716 481.326 235.677 482.644 235.677C483.507 235.677 484.09 235.274 484.435 234.75H484.457V235.012C484.457 236.235 483.972 237.032 482.666 237.032C481.898 237.032 481.099 236.618 480.829 236.377L480.344 237.11C480.495 237.218 481.369 237.885 482.633 237.885C483.907 237.885 484.543 237.359 484.921 236.89C485.299 236.432 485.482 235.798 485.482 234.651ZM484.489 233.068C484.489 234.05 483.918 234.826 482.86 234.826C481.811 234.826 481.229 234.05 481.229 233.068C481.229 232.085 481.811 231.297 482.86 231.297C483.918 231.297 484.489 232.085 484.489 233.068Z" fill="#B8C4D0" fill-opacity="0.5"/>
</g>
</g>
</g>
</g>
</g>
</g>
<g id="Rectangle 5982_3_3" filter="url(#filter6_bd_3584_769)">
<path d="M379.336 179.269C379.336 175.829 381.895 173.038 385.052 173.038H621.122C624.279 173.038 626.838 175.829 626.838 179.269V194.641H379.336V179.269Z" fill="url(#paint12_linear_3584_769)"/>
<path d="M379.525 179.269C379.525 175.918 382.015 173.227 385.052 173.227H621.122C624.159 173.227 626.649 175.918 626.649 179.269V194.452H379.525V179.269Z" stroke="url(#paint13_linear_3584_769)" stroke-opacity="0.2" stroke-width="0.378083"/>
</g>
<g id="Frame 114424">
<path id="Vector_3" d="M393.311 183.25C393.311 184.737 392.085 185.963 390.599 185.963C389.113 185.963 387.887 184.737 387.887 183.25C387.887 181.764 389.113 180.538 390.599 180.538C392.085 180.538 393.311 181.764 393.311 183.25Z" fill="white"/>
<path id="Vector_4" d="M405.414 183.25C405.414 184.737 404.188 185.963 402.702 185.963C401.216 185.963 399.99 184.737 399.99 183.25C399.99 181.764 401.216 180.538 402.702 180.538C404.226 180.538 405.414 181.764 405.414 183.25Z" fill="white"/>
<path id="Vector_5" d="M417.518 183.25C417.518 184.737 416.292 185.963 414.806 185.963C413.32 185.963 412.094 184.737 412.094 183.25C412.094 181.764 413.32 180.538 414.806 180.538C416.292 180.538 417.518 181.764 417.518 183.25Z" fill="white"/>
</g>
</g>
</g>
<g id="Rectangle 5988_4_3_2" style="mix-blend-mode:overlay">
<path d="M379.314 252.87H626.61V294.468H379.314V252.87Z" fill="#A2C6FF" fill-opacity="0.6"/>
</g>
</g>
</g>
<g id="Frame 1143753" opacity="0.8" clip-path="url(#clip3_3584_769)">
<g id="Frame 1142970">
<g clip-path="url(#clip4_3584_769)">
<g id="Rectangle 5" filter="url(#filter7_bd_3584_769)">
<rect x="702" y="253" width="94.5223" height="60.3893" rx="2.26554" fill="url(#paint14_linear_3584_769)"/>
<rect x="702.142" y="253.142" width="94.2391" height="60.1061" rx="2.12395" stroke="url(#paint15_linear_3584_769)" stroke-opacity="0.2" stroke-width="0.283193"/>
</g>
<g id="Rectangle 8773" style="mix-blend-mode:overlay">
<rect x="702" y="264.815" width="94.5223" height="48.574" fill="#A2C6FF" fill-opacity="0.6"/>
</g>
<g id="Frame 1143800">
<path id="Rectangle 5988" opacity="0.3" d="M707.251 271.559C707.251 270.735 707.92 270.067 708.744 270.067H745.143C745.968 270.067 746.636 270.735 746.636 271.559V313.389H707.251V271.559Z" fill="#022455"/>
<g id="Frame 1143799">
<path id="Rectangle 8774" opacity="0.3" d="M750.616 271.559C750.616 270.735 751.284 270.067 752.108 270.067H789.82C790.645 270.067 791.313 270.735 791.313 271.559V288.266C791.313 289.09 790.645 289.759 789.82 289.759H752.108C751.284 289.759 750.616 289.09 750.616 288.266V271.559Z" fill="#022455"/>
<path id="Rectangle 8775" opacity="0.3" d="M750.616 295.231C750.616 294.407 751.284 293.739 752.108 293.739H789.82C790.645 293.739 791.313 294.407 791.313 295.231V313.431H750.616V295.231Z" fill="#022455"/>
</g>
</g>
<g id="Line 134 (Stroke)" style="mix-blend-mode:overlay">
<path fill-rule="evenodd" clip-rule="evenodd" d="M719.066 258.908C719.066 257.82 720.047 256.938 721.258 256.938H789.079C790.289 256.938 791.27 257.82 791.27 258.908C791.27 259.995 790.289 260.877 789.079 260.877L721.258 260.877C720.047 260.877 719.066 259.995 719.066 258.908Z" fill="#A2C6FF" fill-opacity="0.6"/>
</g>
<g id="Frame 114424_2">
<path id="Vector_6" d="M707.25 257.595C707.25 257.955 706.954 258.251 706.594 258.251C706.234 258.251 705.938 257.955 705.938 257.595C705.938 257.235 706.234 256.938 706.594 256.938C706.954 256.938 707.25 257.235 707.25 257.595Z" fill="white"/>
<path id="Vector_7" d="M710.263 257.595C710.263 257.955 709.966 258.251 709.606 258.251C709.246 258.251 708.95 257.955 708.95 257.595C708.95 257.235 709.246 256.938 709.606 256.938C709.975 256.938 710.263 257.235 710.263 257.595Z" fill="white"/>
<path id="Vector_8" d="M713.274 257.595C713.274 257.955 712.978 258.251 712.618 258.251C712.258 258.251 711.961 257.955 711.961 257.595C711.961 257.235 712.258 256.938 712.618 256.938C712.978 256.938 713.274 257.235 713.274 257.595Z" fill="white"/>
</g>
</g>
</g>
</g>
<g id="Frame 1143752" opacity="0.5" clip-path="url(#clip5_3584_769)">
<g id="Frame 1142970_2">
<g clip-path="url(#clip6_3584_769)">
<g id="Rectangle 5_2" filter="url(#filter8_bd_3584_769)">
<rect x="648.909" y="65" width="94.5223" height="60.3893" rx="2.26554" fill="url(#paint16_linear_3584_769)"/>
<rect x="649.051" y="65.1416" width="94.2391" height="60.1061" rx="2.12395" stroke="url(#paint17_linear_3584_769)" stroke-opacity="0.2" stroke-width="0.283193"/>
</g>
<g id="Rectangle 8773_2" style="mix-blend-mode:overlay">
<rect x="648.909" y="76.8153" width="94.5223" height="48.574" fill="#A2C6FF" fill-opacity="0.6"/>
</g>
<g id="Frame 1143800_2">
<path id="Rectangle 5988_2" opacity="0.3" d="M654.161 83.559C654.161 82.7347 654.829 82.0665 655.653 82.0665H692.052C692.877 82.0665 693.545 82.7347 693.545 83.559V125.389H654.161V83.559Z" fill="#022455"/>
<g id="Frame 1143799_2">
<path id="Rectangle 8774_2" opacity="0.3" d="M697.525 83.559C697.525 82.7347 698.193 82.0665 699.017 82.0665H736.73C737.554 82.0665 738.222 82.7347 738.222 83.559V100.266C738.222 101.09 737.554 101.759 736.73 101.759H699.017C698.193 101.759 697.525 101.09 697.525 100.266V83.559Z" fill="#022455"/>
<path id="Rectangle 8775_2" opacity="0.3" d="M697.525 107.231C697.525 106.407 698.193 105.739 699.017 105.739H736.73C737.554 105.739 738.222 106.407 738.222 107.231V125.431H697.525V107.231Z" fill="#022455"/>
</g>
</g>
<g id="Line 134 (Stroke)_2" style="mix-blend-mode:overlay">
<path fill-rule="evenodd" clip-rule="evenodd" d="M665.975 70.9077C665.975 69.8201 666.956 68.9385 668.167 68.9385H735.988C737.198 68.9385 738.18 69.8201 738.18 70.9077C738.18 71.9953 737.198 72.8769 735.988 72.8769L668.167 72.8769C666.956 72.8769 665.975 71.9953 665.975 70.9077Z" fill="#A2C6FF" fill-opacity="0.6"/>
</g>
<g id="Frame 114424_3">
<path id="Vector_9" d="M654.16 69.5949C654.16 69.9546 653.864 70.2513 653.504 70.2513C653.144 70.2513 652.848 69.9546 652.848 69.5949C652.848 69.2352 653.144 68.9385 653.504 68.9385C653.864 68.9385 654.16 69.2352 654.16 69.5949Z" fill="white"/>
<path id="Vector_10" d="M657.173 69.5949C657.173 69.9546 656.876 70.2513 656.516 70.2513C656.157 70.2513 655.86 69.9546 655.86 69.5949C655.86 69.2352 656.157 68.9385 656.516 68.9385C656.885 68.9385 657.173 69.2352 657.173 69.5949Z" fill="white"/>
<path id="Vector_11" d="M660.184 69.5949C660.184 69.9546 659.888 70.2513 659.528 70.2513C659.168 70.2513 658.872 69.9546 658.872 69.5949C658.872 69.2352 659.168 68.9385 659.528 68.9385C659.888 68.9385 660.184 69.2352 660.184 69.5949Z" fill="white"/>
</g>
</g>
</g>
</g>
<g id="Frame 1143754" opacity="0.8" clip-path="url(#clip7_3584_769)">
<g id="Frame 1142970_3">
<g clip-path="url(#clip8_3584_769)">
<g id="Rectangle 5_3" filter="url(#filter9_bd_3584_769)">
<rect x="-4.52441" y="202.739" width="94.5223" height="60.3893" rx="2.26554" fill="url(#paint18_linear_3584_769)"/>
<rect x="-4.38282" y="202.88" width="94.2391" height="60.1061" rx="2.12395" stroke="url(#paint19_linear_3584_769)" stroke-opacity="0.2" stroke-width="0.283193"/>
</g>
<g id="Rectangle 8773_3" style="mix-blend-mode:overlay">
<rect x="-4.52441" y="214.554" width="94.5223" height="48.574" fill="#A2C6FF" fill-opacity="0.6"/>
</g>
<g id="Frame 1143800_3">
<path id="Rectangle 5988_3" opacity="0.3" d="M0.727051 221.298C0.727051 220.473 1.39525 219.805 2.21951 219.805H38.6189C39.4432 219.805 40.1114 220.473 40.1114 221.298V263.128H0.727051V221.298Z" fill="#022455"/>
<g id="Frame 1143799_3">
<path id="Rectangle 8774_3" opacity="0.3" d="M44.0908 221.298C44.0908 220.473 44.759 219.805 45.5833 219.805H83.2955C84.1197 219.805 84.7879 220.473 84.7879 221.298V238.005C84.7879 238.829 84.1197 239.497 83.2955 239.497H45.5833C44.759 239.497 44.0908 238.829 44.0908 238.005V221.298Z" fill="#022455"/>
<path id="Rectangle 8775_3" opacity="0.3" d="M44.0908 244.97C44.0908 244.145 44.759 243.477 45.5833 243.477H83.2955C84.1197 243.477 84.7879 244.145 84.7879 244.97V263.169H44.0908V244.97Z" fill="#022455"/>
</g>
</g>
<g id="Line 134 (Stroke)_3" style="mix-blend-mode:overlay">
<path fill-rule="evenodd" clip-rule="evenodd" d="M12.5415 208.646C12.5415 207.559 13.5228 206.677 14.7333 206.677H82.5543C83.7648 206.677 84.7461 207.559 84.7461 208.646C84.7461 209.734 83.7648 210.616 82.5543 210.616L14.7333 210.616C13.5228 210.616 12.5415 209.734 12.5415 208.646Z" fill="#A2C6FF" fill-opacity="0.6"/>
</g>
<g id="Frame 114424_4">
<path id="Vector_12" d="M0.726872 207.334C0.726872 207.693 0.43014 207.99 0.0704661 207.99C-0.289208 207.99 -0.585938 207.693 -0.585938 207.334C-0.585938 206.974 -0.289208 206.677 0.0704661 206.677C0.43014 206.677 0.726872 206.974 0.726872 207.334Z" fill="white"/>
<path id="Vector_13" d="M3.73908 207.334C3.73908 207.693 3.44235 207.99 3.08267 207.99C2.723 207.99 2.42627 207.693 2.42627 207.334C2.42627 206.974 2.723 206.677 3.08267 206.677C3.45134 206.677 3.73908 206.974 3.73908 207.334Z" fill="white"/>
<path id="Vector_14" d="M6.7508 207.334C6.7508 207.693 6.45407 207.99 6.09439 207.99C5.73472 207.99 5.43799 207.693 5.43799 207.334C5.43799 206.974 5.73472 206.677 6.09439 206.677C6.45407 206.677 6.7508 206.974 6.7508 207.334Z" fill="white"/>
</g>
</g>
</g>
</g>
<g id="Frame 1143755" opacity="0.5" clip-path="url(#clip9_3584_769)">
<g id="Frame 1142970_4">
<g clip-path="url(#clip10_3584_769)">
<g id="Rectangle 5_4" filter="url(#filter10_bd_3584_769)">
<rect x="38.001" y="47" width="94.5223" height="60.3893" rx="2.26554" fill="url(#paint20_linear_3584_769)"/>
<rect x="38.1426" y="47.1416" width="94.2391" height="60.1061" rx="2.12395" stroke="url(#paint21_linear_3584_769)" stroke-opacity="0.2" stroke-width="0.283193"/>
</g>
<g id="Rectangle 8773_4" style="mix-blend-mode:overlay">
<rect x="38.001" y="58.8153" width="94.5223" height="48.574" fill="#A2C6FF" fill-opacity="0.6"/>
</g>
<g id="Frame 1143800_4">
<path id="Rectangle 5988_4" opacity="0.3" d="M43.252 65.559C43.252 64.7347 43.9201 64.0665 44.7444 64.0665H81.1438C81.9681 64.0665 82.6363 64.7347 82.6363 65.559V107.389H43.252V65.559Z" fill="#022455"/>
<g id="Frame 1143799_4">
<path id="Rectangle 8774_4" opacity="0.3" d="M86.6162 65.559C86.6162 64.7347 87.2844 64.0665 88.1087 64.0665H125.821C126.645 64.0665 127.313 64.7347 127.313 65.559V82.2662C127.313 83.0905 126.645 83.7587 125.821 83.7587H88.1087C87.2844 83.7587 86.6162 83.0905 86.6162 82.2662V65.559Z" fill="#022455"/>
<path id="Rectangle 8775_4" opacity="0.3" d="M86.6162 89.231C86.6162 88.4067 87.2844 87.7385 88.1087 87.7385H125.821C126.645 87.7385 127.313 88.4067 127.313 89.231V107.431H86.6162V89.231Z" fill="#022455"/>
</g>
</g>
<g id="Line 134 (Stroke)_4" style="mix-blend-mode:overlay">
<path fill-rule="evenodd" clip-rule="evenodd" d="M55.0684 52.9077C55.0684 51.8201 56.0496 50.9385 57.2601 50.9385H125.081C126.292 50.9385 127.273 51.8201 127.273 52.9077C127.273 53.9953 126.292 54.8769 125.081 54.8769L57.2601 54.8769C56.0496 54.8769 55.0684 53.9953 55.0684 52.9077Z" fill="#A2C6FF" fill-opacity="0.6"/>
</g>
<g id="Frame 114424_5">
<path id="Vector_15" d="M43.2523 51.5949C43.2523 51.9546 42.9555 52.2513 42.5959 52.2513C42.2362 52.2513 41.9395 51.9546 41.9395 51.5949C41.9395 51.2352 42.2362 50.9385 42.5959 50.9385C42.9555 50.9385 43.2523 51.2352 43.2523 51.5949Z" fill="white"/>
<path id="Vector_16" d="M46.2645 51.5949C46.2645 51.9546 45.9677 52.2513 45.6081 52.2513C45.2484 52.2513 44.9517 51.9546 44.9517 51.5949C44.9517 51.2352 45.2484 50.9385 45.6081 50.9385C45.9767 50.9385 46.2645 51.2352 46.2645 51.5949Z" fill="white"/>
<path id="Vector_17" d="M49.2762 51.5949C49.2762 51.9546 48.9795 52.2513 48.6198 52.2513C48.2601 52.2513 47.9634 51.9546 47.9634 51.5949C47.9634 51.2352 48.2601 50.9385 48.6198 50.9385C48.9795 50.9385 49.2762 51.2352 49.2762 51.5949Z" fill="white"/>
</g>
</g>
</g>
</g>
<g id="Frame 1143756" opacity="0.5" clip-path="url(#clip11_3584_769)">
<g id="Frame 1142970_5">
<g clip-path="url(#clip12_3584_769)">
<g id="Rectangle 5_5" filter="url(#filter11_bd_3584_769)">
<rect x="213.001" y="352" width="94.5223" height="60.3893" rx="2.26554" fill="url(#paint22_linear_3584_769)"/>
<rect x="213.143" y="352.142" width="94.2391" height="60.1061" rx="2.12395" stroke="url(#paint23_linear_3584_769)" stroke-opacity="0.2" stroke-width="0.283193"/>
</g>
<g id="Rectangle 8773_5" style="mix-blend-mode:overlay">
<rect x="213.001" y="363.815" width="94.5223" height="48.574" fill="#A2C6FF" fill-opacity="0.6"/>
</g>
<g id="Frame 1143800_5">
<path id="Rectangle 5988_5" opacity="0.3" d="M218.252 370.559C218.252 369.735 218.92 369.066 219.744 369.066H256.144C256.968 369.066 257.636 369.735 257.636 370.559V412.389H218.252V370.559Z" fill="#022455"/>
<g id="Frame 1143799_5">
<path id="Rectangle 8774_5" opacity="0.3" d="M261.616 370.559C261.616 369.735 262.284 369.066 263.109 369.066H300.821C301.645 369.066 302.313 369.735 302.313 370.559V387.266C302.313 388.09 301.645 388.759 300.821 388.759H263.109C262.284 388.759 261.616 388.09 261.616 387.266V370.559Z" fill="#022455"/>
<path id="Rectangle 8775_5" opacity="0.3" d="M261.616 394.231C261.616 393.407 262.284 392.739 263.109 392.739H300.821C301.645 392.739 302.313 393.407 302.313 394.231V412.431H261.616V394.231Z" fill="#022455"/>
</g>
</g>
<g id="Line 134 (Stroke)_5" style="mix-blend-mode:overlay">
<path fill-rule="evenodd" clip-rule="evenodd" d="M230.068 357.908C230.068 356.82 231.05 355.938 232.26 355.938H300.081C301.292 355.938 302.273 356.82 302.273 357.908C302.273 358.995 301.292 359.877 300.081 359.877L232.26 359.877C231.05 359.877 230.068 358.995 230.068 357.908Z" fill="#A2C6FF" fill-opacity="0.6"/>
</g>
<g id="Frame 114424_6">
<path id="Vector_18" d="M218.252 356.595C218.252 356.955 217.956 357.251 217.596 357.251C217.236 357.251 216.939 356.955 216.939 356.595C216.939 356.235 217.236 355.938 217.596 355.938C217.956 355.938 218.252 356.235 218.252 356.595Z" fill="white"/>
<path id="Vector_19" d="M221.264 356.595C221.264 356.955 220.968 357.251 220.608 357.251C220.248 357.251 219.952 356.955 219.952 356.595C219.952 356.235 220.248 355.938 220.608 355.938C220.977 355.938 221.264 356.235 221.264 356.595Z" fill="white"/>
<path id="Vector_20" d="M224.276 356.595C224.276 356.955 223.979 357.251 223.62 357.251C223.26 357.251 222.963 356.955 222.963 356.595C222.963 356.235 223.26 355.938 223.62 355.938C223.979 355.938 224.276 356.235 224.276 356.595Z" fill="white"/>
</g>
</g>
</g>
</g>
<g id="Frame 1143757" opacity="0.5" clip-path="url(#clip13_3584_769)">
<g id="Frame 1142970_6">
<g clip-path="url(#clip14_3584_769)">
<g id="Rectangle 5_6" filter="url(#filter12_bd_3584_769)">
<rect x="436.001" y="-30" width="94.5223" height="60.3893" rx="2.26554" fill="url(#paint24_linear_3584_769)"/>
<rect x="436.143" y="-29.8584" width="94.2391" height="60.1061" rx="2.12395" stroke="url(#paint25_linear_3584_769)" stroke-opacity="0.2" stroke-width="0.283193"/>
</g>
<g id="Rectangle 8773_6" style="mix-blend-mode:overlay">
<rect x="436.001" y="-18.1847" width="94.5223" height="48.574" fill="#A2C6FF" fill-opacity="0.6"/>
</g>
<g id="Frame 1143800_6">
<path id="Rectangle 5988_6" opacity="0.3" d="M441.252 -11.441C441.252 -12.2653 441.92 -12.9335 442.744 -12.9335H479.144C479.968 -12.9335 480.636 -12.2653 480.636 -11.441V30.3893H441.252V-11.441Z" fill="#022455"/>
<g id="Frame 1143799_6">
<path id="Rectangle 8774_6" opacity="0.3" d="M484.616 -11.441C484.616 -12.2653 485.284 -12.9335 486.109 -12.9335H523.821C524.645 -12.9335 525.313 -12.2653 525.313 -11.441V5.26622C525.313 6.09048 524.645 6.75868 523.821 6.75868H486.109C485.284 6.75868 484.616 6.09048 484.616 5.26622V-11.441Z" fill="#022455"/>
<path id="Rectangle 8775_6" opacity="0.3" d="M484.616 12.231C484.616 11.4067 485.284 10.7385 486.109 10.7385H523.821C524.645 10.7385 525.313 11.4067 525.313 12.231V30.4307H484.616V12.231Z" fill="#022455"/>
</g>
</g>
</g>
</g>
</g>
</g>
<defs>
<filter id="filter0_d_3584_769" x="175.619" y="69" width="359.03" height="228.972" filterUnits="userSpaceOnUse" color-interpolation-filters="sRGB">
<feFlood flood-opacity="0" result="BackgroundImageFix"/>
<feColorMatrix in="SourceAlpha" type="matrix" values="0 0 0 0 0 0 0 0 0 0 0 0 0 0 0 0 0 0 127 0" result="hardAlpha"/>
<feOffset dy="4.38053"/>
<feGaussianBlur stdDeviation="2.19027"/>
<feComposite in2="hardAlpha" operator="out"/>
<feColorMatrix type="matrix" values="0 0 0 0 0 0 0 0 0 0 0 0 0 0 0 0 0 0 0.1 0"/>
<feBlend mode="normal" in2="BackgroundImageFix" result="effect1_dropShadow_3584_769"/>
<feBlend mode="normal" in="SourceGraphic" in2="effect1_dropShadow_3584_769" result="shape"/>
</filter>
<filter id="filter1_bd_3584_769" x="212.922" y="220.565" width="130.185" height="130.185" filterUnits="userSpaceOnUse" color-interpolation-filters="sRGB">
<feFlood flood-opacity="0" result="BackgroundImageFix"/>
<feGaussianBlur in="BackgroundImageFix" stdDeviation="5.36872"/>
<feComposite in2="SourceAlpha" operator="in" result="effect1_backgroundBlur_3584_769"/>
<feColorMatrix in="SourceAlpha" type="matrix" values="0 0 0 0 0 0 0 0 0 0 0 0 0 0 0 0 0 0 127 0" result="hardAlpha"/>
<feMorphology radius="1.18741" operator="erode" in="SourceAlpha" result="effect2_dropShadow_3584_769"/>
<feOffset dy="4.74965"/>
<feGaussianBlur stdDeviation="14.2489"/>
<feComposite in2="hardAlpha" operator="out"/>
<feColorMatrix type="matrix" values="0 0 0 0 0 0 0 0 0 0 0 0 0 0 0 0 0 0 0.2 0"/>
<feBlend mode="normal" in2="effect1_backgroundBlur_3584_769" result="effect2_dropShadow_3584_769"/>
<feBlend mode="normal" in="SourceGraphic" in2="effect2_dropShadow_3584_769" result="shape"/>
</filter>
<filter id="filter2_d_3584_769" x="356.427" y="164.643" width="293.071" height="193.709" filterUnits="userSpaceOnUse" color-interpolation-filters="sRGB">
<feFlood flood-opacity="0" result="BackgroundImageFix"/>
<feColorMatrix in="SourceAlpha" type="matrix" values="0 0 0 0 0 0 0 0 0 0 0 0 0 0 0 0 0 0 127 0" result="hardAlpha"/>
<feOffset dy="1.63482"/>
<feGaussianBlur stdDeviation="11.4437"/>
<feComposite in2="hardAlpha" operator="out"/>
<feColorMatrix type="matrix" values="0 0 0 0 0.0354167 0 0 0 0 0.105426 0 0 0 0 0.2125 0 0 0 0.04 0"/>
<feBlend mode="normal" in2="BackgroundImageFix" result="effect1_dropShadow_3584_769"/>
<feBlend mode="normal" in="SourceGraphic" in2="effect1_dropShadow_3584_769" result="shape"/>
</filter>
<filter id="filter3_bd_3584_769" x="353.966" y="160.547" width="297.993" height="198.631" filterUnits="userSpaceOnUse" color-interpolation-filters="sRGB">
<feFlood flood-opacity="0" result="BackgroundImageFix"/>
<feGaussianBlur in="BackgroundImageFix" stdDeviation="12.6743"/>
<feComposite in2="SourceAlpha" operator="in" result="effect1_backgroundBlur_3584_769"/>
<feColorMatrix in="SourceAlpha" type="matrix" values="0 0 0 0 0 0 0 0 0 0 0 0 0 0 0 0 0 0 127 0" result="hardAlpha"/>
<feMorphology radius="0.910067" operator="erode" in="SourceAlpha" result="effect2_dropShadow_3584_769"/>
<feOffset dy="3.64027"/>
<feGaussianBlur stdDeviation="9.0199"/>
<feComposite in2="hardAlpha" operator="out"/>
<feColorMatrix type="matrix" values="0 0 0 0 0 0 0 0 0 0 0 0 0 0 0 0 0 0 0.2 0"/>
<feBlend mode="normal" in2="effect1_backgroundBlur_3584_769" result="effect2_dropShadow_3584_769"/>
<feBlend mode="normal" in="SourceGraphic" in2="effect2_dropShadow_3584_769" result="shape"/>
</filter>
<filter id="filter4_bd_3584_769" x="353.966" y="168.11" width="297.993" height="79.5163" filterUnits="userSpaceOnUse" color-interpolation-filters="sRGB">
<feFlood flood-opacity="0" result="BackgroundImageFix"/>
<feGaussianBlur in="BackgroundImageFix" stdDeviation="12.6743"/>
<feComposite in2="SourceAlpha" operator="in" result="effect1_backgroundBlur_3584_769"/>
<feColorMatrix in="SourceAlpha" type="matrix" values="0 0 0 0 0 0 0 0 0 0 0 0 0 0 0 0 0 0 127 0" result="hardAlpha"/>
<feMorphology radius="0.910067" operator="erode" in="SourceAlpha" result="effect2_dropShadow_3584_769"/>
<feOffset dy="3.64027"/>
<feGaussianBlur stdDeviation="9.0199"/>
<feComposite in2="hardAlpha" operator="out"/>
<feColorMatrix type="matrix" values="0 0 0 0 0 0 0 0 0 0 0 0 0 0 0 0 0 0 0.2 0"/>
<feBlend mode="normal" in2="effect1_backgroundBlur_3584_769" result="effect2_dropShadow_3584_769"/>
<feBlend mode="normal" in="SourceGraphic" in2="effect2_dropShadow_3584_769" result="shape"/>
</filter>
<filter id="filter5_bd_3584_769" x="353.966" y="227.145" width="297.993" height="92.5723" filterUnits="userSpaceOnUse" color-interpolation-filters="sRGB">
<feFlood flood-opacity="0" result="BackgroundImageFix"/>
<feGaussianBlur in="BackgroundImageFix" stdDeviation="12.6743"/>
<feComposite in2="SourceAlpha" operator="in" result="effect1_backgroundBlur_3584_769"/>
<feColorMatrix in="SourceAlpha" type="matrix" values="0 0 0 0 0 0 0 0 0 0 0 0 0 0 0 0 0 0 127 0" result="hardAlpha"/>
<feMorphology radius="0.910067" operator="erode" in="SourceAlpha" result="effect2_dropShadow_3584_769"/>
<feOffset dy="3.64027"/>
<feGaussianBlur stdDeviation="9.0199"/>
<feComposite in2="hardAlpha" operator="out"/>
<feColorMatrix type="matrix" values="0 0 0 0 0 0 0 0 0 0 0 0 0 0 0 0 0 0 0.2 0"/>
<feBlend mode="normal" in2="effect1_backgroundBlur_3584_769" result="effect2_dropShadow_3584_769"/>
<feBlend mode="normal" in="SourceGraphic" in2="effect2_dropShadow_3584_769" result="shape"/>
</filter>
<filter id="filter6_bd_3584_769" x="353.988" y="147.689" width="298.199" height="72.3004" filterUnits="userSpaceOnUse" color-interpolation-filters="sRGB">
<feFlood flood-opacity="0" result="BackgroundImageFix"/>
<feGaussianBlur in="BackgroundImageFix" stdDeviation="12.6743"/>
<feComposite in2="SourceAlpha" operator="in" result="effect1_backgroundBlur_3584_769"/>
<feColorMatrix in="SourceAlpha" type="matrix" values="0 0 0 0 0 0 0 0 0 0 0 0 0 0 0 0 0 0 127 0" result="hardAlpha"/>
<feMorphology radius="0.910067" operator="erode" in="SourceAlpha" result="effect2_dropShadow_3584_769"/>
<feOffset dy="3.64027"/>
<feGaussianBlur stdDeviation="9.0199"/>
<feComposite in2="hardAlpha" operator="out"/>
<feColorMatrix type="matrix" values="0 0 0 0 0 0 0 0 0 0 0 0 0 0 0 0 0 0 0.2 0"/>
<feBlend mode="normal" in2="effect1_backgroundBlur_3584_769" result="effect2_dropShadow_3584_769"/>
<feBlend mode="normal" in="SourceGraphic" in2="effect2_dropShadow_3584_769" result="shape"/>
</filter>
<filter id="filter7_bd_3584_769" x="688.984" y="239.984" width="120.554" height="86.4204" filterUnits="userSpaceOnUse" color-interpolation-filters="sRGB">
<feFlood flood-opacity="0" result="BackgroundImageFix"/>
<feGaussianBlur in="BackgroundImageFix" stdDeviation="6.50777"/>
<feComposite in2="SourceAlpha" operator="in" result="effect1_backgroundBlur_3584_769"/>
<feColorMatrix in="SourceAlpha" type="matrix" values="0 0 0 0 0 0 0 0 0 0 0 0 0 0 0 0 0 0 127 0" result="hardAlpha"/>
<feMorphology radius="0.467284" operator="erode" in="SourceAlpha" result="effect2_dropShadow_3584_769"/>
<feOffset dy="1.86913"/>
<feGaussianBlur stdDeviation="4.63136"/>
<feComposite in2="hardAlpha" operator="out"/>
<feColorMatrix type="matrix" values="0 0 0 0 0 0 0 0 0 0 0 0 0 0 0 0 0 0 0.2 0"/>
<feBlend mode="normal" in2="effect1_backgroundBlur_3584_769" result="effect2_dropShadow_3584_769"/>
<feBlend mode="normal" in="SourceGraphic" in2="effect2_dropShadow_3584_769" result="shape"/>
</filter>
<filter id="filter8_bd_3584_769" x="635.894" y="51.9845" width="120.554" height="86.4204" filterUnits="userSpaceOnUse" color-interpolation-filters="sRGB">
<feFlood flood-opacity="0" result="BackgroundImageFix"/>
<feGaussianBlur in="BackgroundImageFix" stdDeviation="6.50777"/>
<feComposite in2="SourceAlpha" operator="in" result="effect1_backgroundBlur_3584_769"/>
<feColorMatrix in="SourceAlpha" type="matrix" values="0 0 0 0 0 0 0 0 0 0 0 0 0 0 0 0 0 0 127 0" result="hardAlpha"/>
<feMorphology radius="0.467284" operator="erode" in="SourceAlpha" result="effect2_dropShadow_3584_769"/>
<feOffset dy="1.86913"/>
<feGaussianBlur stdDeviation="4.63136"/>
<feComposite in2="hardAlpha" operator="out"/>
<feColorMatrix type="matrix" values="0 0 0 0 0 0 0 0 0 0 0 0 0 0 0 0 0 0 0.2 0"/>
<feBlend mode="normal" in2="effect1_backgroundBlur_3584_769" result="effect2_dropShadow_3584_769"/>
<feBlend mode="normal" in="SourceGraphic" in2="effect2_dropShadow_3584_769" result="shape"/>
</filter>
<filter id="filter9_bd_3584_769" x="-17.54" y="189.723" width="120.554" height="86.4204" filterUnits="userSpaceOnUse" color-interpolation-filters="sRGB">
<feFlood flood-opacity="0" result="BackgroundImageFix"/>
<feGaussianBlur in="BackgroundImageFix" stdDeviation="6.50777"/>
<feComposite in2="SourceAlpha" operator="in" result="effect1_backgroundBlur_3584_769"/>
<feColorMatrix in="SourceAlpha" type="matrix" values="0 0 0 0 0 0 0 0 0 0 0 0 0 0 0 0 0 0 127 0" result="hardAlpha"/>
<feMorphology radius="0.467284" operator="erode" in="SourceAlpha" result="effect2_dropShadow_3584_769"/>
<feOffset dy="1.86913"/>
<feGaussianBlur stdDeviation="4.63136"/>
<feComposite in2="hardAlpha" operator="out"/>
<feColorMatrix type="matrix" values="0 0 0 0 0 0 0 0 0 0 0 0 0 0 0 0 0 0 0.2 0"/>
<feBlend mode="normal" in2="effect1_backgroundBlur_3584_769" result="effect2_dropShadow_3584_769"/>
<feBlend mode="normal" in="SourceGraphic" in2="effect2_dropShadow_3584_769" result="shape"/>
</filter>
<filter id="filter10_bd_3584_769" x="24.9854" y="33.9845" width="120.554" height="86.4204" filterUnits="userSpaceOnUse" color-interpolation-filters="sRGB">
<feFlood flood-opacity="0" result="BackgroundImageFix"/>
<feGaussianBlur in="BackgroundImageFix" stdDeviation="6.50777"/>
<feComposite in2="SourceAlpha" operator="in" result="effect1_backgroundBlur_3584_769"/>
<feColorMatrix in="SourceAlpha" type="matrix" values="0 0 0 0 0 0 0 0 0 0 0 0 0 0 0 0 0 0 127 0" result="hardAlpha"/>
<feMorphology radius="0.467284" operator="erode" in="SourceAlpha" result="effect2_dropShadow_3584_769"/>
<feOffset dy="1.86913"/>
<feGaussianBlur stdDeviation="4.63136"/>
<feComposite in2="hardAlpha" operator="out"/>
<feColorMatrix type="matrix" values="0 0 0 0 0 0 0 0 0 0 0 0 0 0 0 0 0 0 0.2 0"/>
<feBlend mode="normal" in2="effect1_backgroundBlur_3584_769" result="effect2_dropShadow_3584_769"/>
<feBlend mode="normal" in="SourceGraphic" in2="effect2_dropShadow_3584_769" result="shape"/>
</filter>
<filter id="filter11_bd_3584_769" x="199.985" y="338.984" width="120.554" height="86.4202" filterUnits="userSpaceOnUse" color-interpolation-filters="sRGB">
<feFlood flood-opacity="0" result="BackgroundImageFix"/>
<feGaussianBlur in="BackgroundImageFix" stdDeviation="6.50777"/>
<feComposite in2="SourceAlpha" operator="in" result="effect1_backgroundBlur_3584_769"/>
<feColorMatrix in="SourceAlpha" type="matrix" values="0 0 0 0 0 0 0 0 0 0 0 0 0 0 0 0 0 0 127 0" result="hardAlpha"/>
<feMorphology radius="0.467284" operator="erode" in="SourceAlpha" result="effect2_dropShadow_3584_769"/>
<feOffset dy="1.86913"/>
<feGaussianBlur stdDeviation="4.63136"/>
<feComposite in2="hardAlpha" operator="out"/>
<feColorMatrix type="matrix" values="0 0 0 0 0 0 0 0 0 0 0 0 0 0 0 0 0 0 0.2 0"/>
<feBlend mode="normal" in2="effect1_backgroundBlur_3584_769" result="effect2_dropShadow_3584_769"/>
<feBlend mode="normal" in="SourceGraphic" in2="effect2_dropShadow_3584_769" result="shape"/>
</filter>
<filter id="filter12_bd_3584_769" x="422.985" y="-43.0155" width="120.554" height="86.4204" filterUnits="userSpaceOnUse" color-interpolation-filters="sRGB">
<feFlood flood-opacity="0" result="BackgroundImageFix"/>
<feGaussianBlur in="BackgroundImageFix" stdDeviation="6.50777"/>
<feComposite in2="SourceAlpha" operator="in" result="effect1_backgroundBlur_3584_769"/>
<feColorMatrix in="SourceAlpha" type="matrix" values="0 0 0 0 0 0 0 0 0 0 0 0 0 0 0 0 0 0 127 0" result="hardAlpha"/>
<feMorphology radius="0.467284" operator="erode" in="SourceAlpha" result="effect2_dropShadow_3584_769"/>
<feOffset dy="1.86913"/>
<feGaussianBlur stdDeviation="4.63136"/>
<feComposite in2="hardAlpha" operator="out"/>
<feColorMatrix type="matrix" values="0 0 0 0 0 0 0 0 0 0 0 0 0 0 0 0 0 0 0.2 0"/>
<feBlend mode="normal" in2="effect1_backgroundBlur_3584_769" result="effect2_dropShadow_3584_769"/>
<feBlend mode="normal" in="SourceGraphic" in2="effect2_dropShadow_3584_769" result="shape"/>
</filter>
<radialGradient id="paint0_radial_3584_769" cx="0" cy="0" r="1" gradientUnits="userSpaceOnUse" gradientTransform="translate(1.41713e-05 418.687) rotate(-57.2949) scale(531.782 588.419)">
<stop stop-color="#0941AB"/>
<stop offset="1" stop-color="#091B36" stop-opacity="0"/>
</radialGradient>
<radialGradient id="paint1_radial_3584_769" cx="0" cy="0" r="1" gradientUnits="userSpaceOnUse" gradientTransform="translate(796.78 -9.72212) rotate(139.994) scale(490.426 444.702)">
<stop stop-color="#0941AB"/>
<stop offset="1" stop-color="#091B36" stop-opacity="0"/>
</radialGradient>
<radialGradient id="paint2_radial_3584_769" cx="0" cy="0" r="1" gradientUnits="userSpaceOnUse" gradientTransform="translate(407.481 400) rotate(-90.1411) scale(400.001 528.853)">
<stop stop-color="#0941AB"/>
<stop offset="1" stop-color="#091B36" stop-opacity="0"/>
</radialGradient>
<linearGradient id="paint3_linear_3584_769" x1="209.889" y1="73.0255" x2="512.175" y2="314.333" gradientUnits="userSpaceOnUse">
<stop stop-color="#0C2966"/>
<stop offset="1" stop-color="#0045C9"/>
</linearGradient>
<linearGradient id="paint4_linear_3584_769" x1="243.316" y1="243.126" x2="319.502" y2="272.743" gradientUnits="userSpaceOnUse">
<stop stop-color="white" stop-opacity="0.09"/>
<stop offset="1" stop-color="white" stop-opacity="0.3"/>
</linearGradient>
<linearGradient id="paint5_linear_3584_769" x1="250.504" y1="244.637" x2="323.349" y2="283.604" gradientUnits="userSpaceOnUse">
<stop stop-color="white" stop-opacity="0.4"/>
<stop offset="1" stop-color="#3D7FFC"/>
</linearGradient>
<linearGradient id="paint6_linear_3584_769" x1="415.102" y1="179.537" x2="615.703" y2="338.809" gradientUnits="userSpaceOnUse">
<stop offset="0.28" stop-color="#092349"/>
<stop offset="1" stop-color="#003C97"/>
</linearGradient>
<linearGradient id="paint7_linear_3584_769" x1="412.931" y1="188.855" x2="583.305" y2="341.208" gradientUnits="userSpaceOnUse">
<stop stop-color="white" stop-opacity="0"/>
<stop offset="1" stop-color="#BBB7FF"/>
</linearGradient>
<linearGradient id="paint8_linear_3584_769" x1="417.89" y1="182.208" x2="430.687" y2="264.579" gradientUnits="userSpaceOnUse">
<stop offset="0.28" stop-color="#0A673D"/>
<stop offset="1" stop-color="#069C59"/>
</linearGradient>
<linearGradient id="paint9_linear_3584_769" x1="412.931" y1="194.035" x2="426.824" y2="257.805" gradientUnits="userSpaceOnUse">
<stop stop-color="white" stop-opacity="0"/>
<stop offset="1" stop-color="#BBB7FF"/>
</linearGradient>
<linearGradient id="paint10_linear_3584_769" x1="415.102" y1="250.693" x2="451.985" y2="354.147" gradientUnits="userSpaceOnUse">
<stop offset="0.28" stop-color="#092349"/>
<stop offset="1" stop-color="#003C97"/>
</linearGradient>
<linearGradient id="paint11_linear_3584_769" x1="412.931" y1="253.331" x2="440.856" y2="341.548" gradientUnits="userSpaceOnUse">
<stop stop-color="white" stop-opacity="0"/>
<stop offset="1" stop-color="#BBB7FF"/>
</linearGradient>
<linearGradient id="paint12_linear_3584_769" x1="415.153" y1="172.109" x2="425.847" y2="230.299" gradientUnits="userSpaceOnUse">
<stop offset="0.28" stop-color="#092349"/>
<stop offset="1" stop-color="#003C97"/>
</linearGradient>
<linearGradient id="paint13_linear_3584_769" x1="412.981" y1="173.47" x2="420.939" y2="222.242" gradientUnits="userSpaceOnUse">
<stop stop-color="white" stop-opacity="0"/>
<stop offset="1" stop-color="#BBB7FF"/>
</linearGradient>
<linearGradient id="paint14_linear_3584_769" x1="715.679" y1="250.404" x2="796.192" y2="310.259" gradientUnits="userSpaceOnUse">
<stop offset="0.28" stop-color="#092349"/>
<stop offset="1" stop-color="#003C97"/>
</linearGradient>
<linearGradient id="paint15_linear_3584_769" x1="714.849" y1="254.208" x2="783.744" y2="311.893" gradientUnits="userSpaceOnUse">
<stop stop-color="white" stop-opacity="0"/>
<stop offset="1" stop-color="#BBB7FF"/>
</linearGradient>
<linearGradient id="paint16_linear_3584_769" x1="662.588" y1="62.4042" x2="743.101" y2="122.259" gradientUnits="userSpaceOnUse">
<stop offset="0.28" stop-color="#092349"/>
<stop offset="1" stop-color="#003C97"/>
</linearGradient>
<linearGradient id="paint17_linear_3584_769" x1="661.758" y1="66.2078" x2="730.654" y2="123.893" gradientUnits="userSpaceOnUse">
<stop stop-color="white" stop-opacity="0"/>
<stop offset="1" stop-color="#BBB7FF"/>
</linearGradient>
<linearGradient id="paint18_linear_3584_769" x1="9.15424" y1="200.143" x2="89.6674" y2="259.997" gradientUnits="userSpaceOnUse">
<stop offset="0.28" stop-color="#092349"/>
<stop offset="1" stop-color="#003C97"/>
</linearGradient>
<linearGradient id="paint19_linear_3584_769" x1="8.32472" y1="203.947" x2="77.22" y2="261.632" gradientUnits="userSpaceOnUse">
<stop stop-color="white" stop-opacity="0"/>
<stop offset="1" stop-color="#BBB7FF"/>
</linearGradient>
<linearGradient id="paint20_linear_3584_769" x1="51.6796" y1="44.4042" x2="132.193" y2="104.259" gradientUnits="userSpaceOnUse">
<stop offset="0.28" stop-color="#092349"/>
<stop offset="1" stop-color="#003C97"/>
</linearGradient>
<linearGradient id="paint21_linear_3584_769" x1="50.8501" y1="48.2078" x2="119.745" y2="105.893" gradientUnits="userSpaceOnUse">
<stop stop-color="white" stop-opacity="0"/>
<stop offset="1" stop-color="#BBB7FF"/>
</linearGradient>
<linearGradient id="paint22_linear_3584_769" x1="226.68" y1="349.404" x2="307.193" y2="409.259" gradientUnits="userSpaceOnUse">
<stop offset="0.28" stop-color="#092349"/>
<stop offset="1" stop-color="#003C97"/>
</linearGradient>
<linearGradient id="paint23_linear_3584_769" x1="225.85" y1="353.208" x2="294.745" y2="410.893" gradientUnits="userSpaceOnUse">
<stop stop-color="white" stop-opacity="0"/>
<stop offset="1" stop-color="#BBB7FF"/>
</linearGradient>
<linearGradient id="paint24_linear_3584_769" x1="449.68" y1="-32.5958" x2="530.193" y2="27.2587" gradientUnits="userSpaceOnUse">
<stop offset="0.28" stop-color="#092349"/>
<stop offset="1" stop-color="#003C97"/>
</linearGradient>
<linearGradient id="paint25_linear_3584_769" x1="448.85" y1="-28.7922" x2="517.745" y2="28.893" gradientUnits="userSpaceOnUse">
<stop stop-color="white" stop-opacity="0"/>
<stop offset="1" stop-color="#BBB7FF"/>
</linearGradient>
<clipPath id="clip0_3584_769">
<rect width="780" height="400" fill="white"/>
</clipPath>
<clipPath id="clip1_3584_769">
<rect width="56" height="56" fill="white" transform="translate(250 253)"/>
</clipPath>
<clipPath id="clip2_3584_769">
<rect width="48.3466" height="40.8333" fill="white" transform="translate(253.5 261.167)"/>
</clipPath>
<clipPath id="clip3_3584_769">
<rect width="94.5223" height="60.3893" fill="white" transform="translate(702 253)"/>
</clipPath>
<clipPath id="clip4_3584_769">
<rect x="702" y="253" width="94.5223" height="60.3893" rx="2.26554" fill="white"/>
</clipPath>
<clipPath id="clip5_3584_769">
<rect width="94.5223" height="60.3893" fill="white" transform="translate(648.909 65)"/>
</clipPath>
<clipPath id="clip6_3584_769">
<rect x="648.909" y="65" width="94.5223" height="60.3893" rx="2.26554" fill="white"/>
</clipPath>
<clipPath id="clip7_3584_769">
<rect width="94.5223" height="60.3893" fill="white" transform="translate(-4.52344 202.739)"/>
</clipPath>
<clipPath id="clip8_3584_769">
<rect x="-4.52393" y="202.739" width="94.5223" height="60.3893" rx="2.26554" fill="white"/>
</clipPath>
<clipPath id="clip9_3584_769">
<rect width="94.5223" height="60.3893" fill="white" transform="translate(38 47)"/>
</clipPath>
<clipPath id="clip10_3584_769">
<rect x="38.0005" y="47" width="94.5223" height="60.3893" rx="2.26554" fill="white"/>
</clipPath>
<clipPath id="clip11_3584_769">
<rect width="94.5223" height="60.3893" fill="white" transform="translate(213 352)"/>
</clipPath>
<clipPath id="clip12_3584_769">
<rect x="213" y="352" width="94.5223" height="60.3893" rx="2.26554" fill="white"/>
</clipPath>
<clipPath id="clip13_3584_769">
<rect width="94.5223" height="60.3893" fill="white" transform="translate(436 -30)"/>
</clipPath>
<clipPath id="clip14_3584_769">
<rect x="436" y="-30" width="94.5223" height="60.3893" rx="2.26554" fill="white"/>
</clipPath>
</defs>
</svg>
